<svg xmlns="http://www.w3.org/2000/svg" xmlns:xlink="http://www.w3.org/1999/xlink" id="processonSvg1000" viewBox="164.5 101.0 458.5 2329.0" width="458.5" height="2329.0"><defs id="ProcessOnDefs1001"><marker id="ProcessOnMarker1011" markerUnits="userSpaceOnUse" orient="auto" markerWidth="16.23606797749979" markerHeight="10.550836550532098" viewBox="-1.0 -1.3763819204711736 16.23606797749979 10.550836550532098" refX="-1.0" refY="3.8990363547948754"><path id="ProcessOnPath1012" d="M12.0 3.8990363547948754L0.0 7.798072709589751V0.0Z" stroke="#5c5c5c" stroke-width="2.0" fill="#5c5c5c" transform="matrix(1.0,0.0,0.0,1.0,0.0,0.0)"/></marker><marker id="ProcessOnMarker1020" markerUnits="userSpaceOnUse" orient="auto" markerWidth="16.23606797749979" markerHeight="10.550836550532098" viewBox="-1.0 -1.3763819204711736 16.23606797749979 10.550836550532098" refX="-1.0" refY="3.8990363547948754"><path id="ProcessOnPath1021" d="M12.0 3.8990363547948754L0.0 7.798072709589751V0.0Z" stroke="#5c5c5c" stroke-width="2.0" fill="#5c5c5c" transform="matrix(1.0,0.0,0.0,1.0,0.0,0.0)"/></marker><marker id="ProcessOnMarker1031" markerUnits="userSpaceOnUse" orient="auto" markerWidth="16.23606797749979" markerHeight="10.550836550532098" viewBox="-1.0 -1.3763819204711736 16.23606797749979 10.550836550532098" refX="-1.0" refY="3.8990363547948754"><path id="ProcessOnPath1032" d="M12.0 3.8990363547948754L0.0 7.798072709589751V0.0Z" stroke="#5c5c5c" stroke-width="2.0" fill="#5c5c5c" transform="matrix(1.0,0.0,0.0,1.0,0.0,0.0)"/></marker><marker id="ProcessOnMarker1052" markerUnits="userSpaceOnUse" orient="auto" markerWidth="16.23606797749979" markerHeight="10.550836550532098" viewBox="-1.0 -1.3763819204711736 16.23606797749979 10.550836550532098" refX="-1.0" refY="3.8990363547948754"><path id="ProcessOnPath1053" d="M12.0 3.8990363547948754L0.0 7.798072709589751V0.0Z" stroke="#323232" stroke-width="2.0" fill="#323232" transform="matrix(1.0,0.0,0.0,1.0,0.0,0.0)"/></marker><marker id="ProcessOnMarker1061" markerUnits="userSpaceOnUse" orient="auto" markerWidth="16.23606797749979" markerHeight="10.550836550532098" viewBox="-1.0 -1.3763819204711736 16.23606797749979 10.550836550532098" refX="-1.0" refY="3.8990363547948754"><path id="ProcessOnPath1062" d="M12.0 3.8990363547948754L0.0 7.798072709589751V0.0Z" stroke="#323232" stroke-width="2.0" fill="#323232" transform="matrix(1.0,0.0,0.0,1.0,0.0,0.0)"/></marker><marker id="ProcessOnMarker1065" markerUnits="userSpaceOnUse" orient="auto" markerWidth="16.23606797749979" markerHeight="10.550836550532098" viewBox="-1.0 -1.3763819204711736 16.23606797749979 10.550836550532098" refX="-1.0" refY="3.8990363547948754"><path id="ProcessOnPath1066" d="M12.0 3.8990363547948754L0.0 7.798072709589751V0.0Z" stroke="#323232" stroke-width="2.0" fill="#323232" transform="matrix(1.0,0.0,0.0,1.0,0.0,0.0)"/></marker><marker id="ProcessOnMarker1077" markerUnits="userSpaceOnUse" orient="auto" markerWidth="16.23606797749979" markerHeight="10.550836550532098" viewBox="-1.0 -1.3763819204711736 16.23606797749979 10.550836550532098" refX="-1.0" refY="3.8990363547948754"><path id="ProcessOnPath1078" d="M12.0 3.8990363547948754L0.0 7.798072709589751V0.0Z" stroke="#323232" stroke-width="2.0" fill="#323232" transform="matrix(1.0,0.0,0.0,1.0,0.0,0.0)"/></marker><marker id="ProcessOnMarker1087" markerUnits="userSpaceOnUse" orient="auto" markerWidth="16.23606797749979" markerHeight="10.550836550532098" viewBox="-1.0 -1.3763819204711736 16.23606797749979 10.550836550532098" refX="-1.0" refY="3.8990363547948754"><path id="ProcessOnPath1088" d="M12.0 3.8990363547948754L0.0 7.798072709589751V0.0Z" stroke="#323232" stroke-width="2.0" fill="#323232" transform="matrix(1.0,0.0,0.0,1.0,0.0,0.0)"/></marker><marker id="ProcessOnMarker1094" markerUnits="userSpaceOnUse" orient="auto" markerWidth="16.23606797749979" markerHeight="10.550836550532098" viewBox="-1.0 -1.3763819204711736 16.23606797749979 10.550836550532098" refX="-1.0" refY="3.8990363547948754"><path id="ProcessOnPath1095" d="M12.0 3.8990363547948754L0.0 7.798072709589751V0.0Z" stroke="#323232" stroke-width="2.0" fill="#323232" transform="matrix(1.0,0.0,0.0,1.0,0.0,0.0)"/></marker><marker id="ProcessOnMarker1112" markerUnits="userSpaceOnUse" orient="auto" markerWidth="16.23606797749979" markerHeight="10.550836550532098" viewBox="-1.0 -1.3763819204711736 16.23606797749979 10.550836550532098" refX="-1.0" refY="3.8990363547948754"><path id="ProcessOnPath1113" d="M12.0 3.8990363547948754L0.0 7.798072709589751V0.0Z" stroke="#323232" stroke-width="2.0" fill="#323232" transform="matrix(1.0,0.0,0.0,1.0,0.0,0.0)"/></marker><marker id="ProcessOnMarker1116" markerUnits="userSpaceOnUse" orient="auto" markerWidth="16.23606797749979" markerHeight="10.550836550532098" viewBox="-1.0 -1.3763819204711736 16.23606797749979 10.550836550532098" refX="-1.0" refY="3.8990363547948754"><path id="ProcessOnPath1117" d="M12.0 3.8990363547948754L0.0 7.798072709589751V0.0Z" stroke="#323232" stroke-width="2.0" fill="#323232" transform="matrix(1.0,0.0,0.0,1.0,0.0,0.0)"/></marker><marker id="ProcessOnMarker1134" markerUnits="userSpaceOnUse" orient="auto" markerWidth="16.23606797749979" markerHeight="10.550836550532098" viewBox="-1.0 -1.3763819204711736 16.23606797749979 10.550836550532098" refX="-1.0" refY="3.8990363547948754"><path id="ProcessOnPath1135" d="M12.0 3.8990363547948754L0.0 7.798072709589751V0.0Z" stroke="#323232" stroke-width="2.0" fill="#323232" transform="matrix(1.0,0.0,0.0,1.0,0.0,0.0)"/></marker><marker id="ProcessOnMarker1144" markerUnits="userSpaceOnUse" orient="auto" markerWidth="16.23606797749979" markerHeight="10.550836550532098" viewBox="-1.0 -1.3763819204711736 16.23606797749979 10.550836550532098" refX="-1.0" refY="3.8990363547948754"><path id="ProcessOnPath1145" d="M12.0 3.8990363547948754L0.0 7.798072709589751V0.0Z" stroke="#323232" stroke-width="2.0" fill="#323232" transform="matrix(1.0,0.0,0.0,1.0,0.0,0.0)"/></marker><marker id="ProcessOnMarker1158" markerUnits="userSpaceOnUse" orient="auto" markerWidth="16.23606797749979" markerHeight="10.550836550532098" viewBox="-1.0 -1.3763819204711736 16.23606797749979 10.550836550532098" refX="-1.0" refY="3.8990363547948754"><path id="ProcessOnPath1159" d="M12.0 3.8990363547948754L0.0 7.798072709589751V0.0Z" stroke="#323232" stroke-width="2.0" fill="#323232" transform="matrix(1.0,0.0,0.0,1.0,0.0,0.0)"/></marker><marker id="ProcessOnMarker1168" markerUnits="userSpaceOnUse" orient="auto" markerWidth="16.23606797749979" markerHeight="10.550836550532098" viewBox="-1.0 -1.3763819204711736 16.23606797749979 10.550836550532098" refX="-1.0" refY="3.8990363547948754"><path id="ProcessOnPath1169" d="M12.0 3.8990363547948754L0.0 7.798072709589751V0.0Z" stroke="#323232" stroke-width="2.0" fill="#323232" transform="matrix(1.0,0.0,0.0,1.0,0.0,0.0)"/></marker><marker id="ProcessOnMarker1180" markerUnits="userSpaceOnUse" orient="auto" markerWidth="16.23606797749979" markerHeight="10.550836550532098" viewBox="-1.0 -1.3763819204711736 16.23606797749979 10.550836550532098" refX="-1.0" refY="3.8990363547948754"><path id="ProcessOnPath1181" d="M12.0 3.8990363547948754L0.0 7.798072709589751V0.0Z" stroke="#323232" stroke-width="2.0" fill="#323232" transform="matrix(1.0,0.0,0.0,1.0,0.0,0.0)"/></marker><marker id="ProcessOnMarker1191" markerUnits="userSpaceOnUse" orient="auto" markerWidth="16.23606797749979" markerHeight="10.550836550532098" viewBox="-1.0 -1.3763819204711736 16.23606797749979 10.550836550532098" refX="-1.0" refY="3.8990363547948754"><path id="ProcessOnPath1192" d="M12.0 3.8990363547948754L0.0 7.798072709589751V0.0Z" stroke="#323232" stroke-width="2.0" fill="#323232" transform="matrix(1.0,0.0,0.0,1.0,0.0,0.0)"/></marker><marker id="ProcessOnMarker1206" markerUnits="userSpaceOnUse" orient="auto" markerWidth="16.23606797749979" markerHeight="10.550836550532098" viewBox="-1.0 -1.3763819204711736 16.23606797749979 10.550836550532098" refX="-1.0" refY="3.8990363547948754"><path id="ProcessOnPath1207" d="M12.0 3.8990363547948754L0.0 7.798072709589751V0.0Z" stroke="#323232" stroke-width="2.0" fill="#323232" transform="matrix(1.0,0.0,0.0,1.0,0.0,0.0)"/></marker><marker id="ProcessOnMarker1221" markerUnits="userSpaceOnUse" orient="auto" markerWidth="16.23606797749979" markerHeight="10.550836550532098" viewBox="-1.0 -1.3763819204711736 16.23606797749979 10.550836550532098" refX="-1.0" refY="3.8990363547948754"><path id="ProcessOnPath1222" d="M12.0 3.8990363547948754L0.0 7.798072709589751V0.0Z" stroke="#323232" stroke-width="2.0" fill="#323232" transform="matrix(1.0,0.0,0.0,1.0,0.0,0.0)"/></marker><marker id="ProcessOnMarker1225" markerUnits="userSpaceOnUse" orient="auto" markerWidth="16.23606797749979" markerHeight="10.550836550532098" viewBox="-1.0 -1.3763819204711736 16.23606797749979 10.550836550532098" refX="-1.0" refY="3.8990363547948754"><path id="ProcessOnPath1226" d="M12.0 3.8990363547948754L0.0 7.798072709589751V0.0Z" stroke="#323232" stroke-width="2.0" fill="#323232" transform="matrix(1.0,0.0,0.0,1.0,0.0,0.0)"/></marker></defs><g id="ProcessOnG1002"><path id="ProcessOnPath1003" d="M164.5 101.0H623.0V2430.0H164.5V101.0Z" fill="none"/><g id="ProcessOnG1004"><g id="ProcessOnG1005" transform="matrix(1.0,0.0,0.0,1.0,231.0,125.0)" opacity="1.0"><path id="ProcessOnPath1006" d="M0.0 0.0L100.0 0.0L100.0 49.0L0.0 49.0Z" stroke="#99ccff" stroke-width="2.0" stroke-dasharray="none" opacity="1.0" fill="#99ccff"/><g id="ProcessOnG1007" transform="matrix(1.0,0.0,0.0,1.0,10.0,16.375)"><text id="ProcessOnText1008" fill="#000000" font-weight="normal" font-style="normal" text-decoration="blink" font-family="微软雅黑" text-anchor="middle" font-size="13" x="40.0" y="13.325">插入键值对</text></g></g><g id="ProcessOnG1009"><path id="ProcessOnPath1010" d="M281.0 174.0L281.0 213.5L281.0 213.5L281.0 237.7639320225002" stroke="#5c5c5c" stroke-width="2.0" stroke-dasharray="none" fill="none" marker-end="url(#ProcessOnMarker1011)"/></g><g id="ProcessOnG1013" transform="matrix(1.0,0.0,0.0,1.0,236.0,253.0)" opacity="1.0"><path id="ProcessOnPath1014" d="M0.0 35.0L45.0 0.0L90.0 35.0L45.0 70.0L0.0 35.0Z" stroke="#ff8000" stroke-width="2.0" stroke-dasharray="none" opacity="1.0" fill="#ff8000"/><g id="ProcessOnG1015" transform="matrix(1.0,0.0,0.0,1.0,10.0,18.75)"><text id="ProcessOnText1016" fill="#000000" font-weight="normal" font-style="normal" text-decoration="blink" font-family="微软雅黑" text-anchor="middle" font-size="13" x="35.0" y="13.325">table是否为</text><text id="ProcessOnText1017" fill="#000000" font-weight="normal" font-style="normal" text-decoration="blink" font-family="微软雅黑" text-anchor="middle" font-size="13" x="35.0" y="29.575">空</text></g></g><g id="ProcessOnG1018"><path id="ProcessOnPath1019" d="M281.0 323.0L281.0 362.5L281.0 362.5L281.0 386.7639320225002" stroke="#5c5c5c" stroke-width="2.0" stroke-dasharray="none" fill="none" marker-end="url(#ProcessOnMarker1020)"/><g id="ProcessOnG1022" transform="matrix(1.0,0.0,0.0,1.0,281.0,346.75696601125014)"><path id="ProcessOnPath1023" d="M0 0H13.0V16.25H0Z" fill="#fff" transform="matrix(1.0,0.0,0.0,1.0,-6.5,0.0)"/><text id="ProcessOnText1024" fill="#000000" font-weight="normal" font-style="normal" text-decoration="blink" font-family="微软雅黑" text-anchor="middle" font-size="13" x="0.0" y="13.325">否</text></g></g><g id="ProcessOnG1025" transform="matrix(1.0,0.0,0.0,1.0,231.0,402.0)" opacity="1.0"><path id="ProcessOnPath1026" d="M0.0 0.0L100.0 0.0L100.0 48.0L0.0 48.0Z" stroke="#99ccff" stroke-width="2.0" stroke-dasharray="none" opacity="1.0" fill="#99ccff"/><g id="ProcessOnG1027" transform="matrix(1.0,0.0,0.0,1.0,10.0,15.875)"><text id="ProcessOnText1028" fill="#000000" font-weight="normal" font-style="normal" text-decoration="blink" font-family="微软雅黑" text-anchor="middle" font-size="13" x="40.0" y="13.325">table不为空</text></g></g><g id="ProcessOnG1029"><path id="ProcessOnPath1030" d="M326.0 288.0L412.0 288.0L412.0 288.0L482.7639320225002 288.0" stroke="#5c5c5c" stroke-width="2.0" stroke-dasharray="none" fill="none" marker-end="url(#ProcessOnMarker1031)"/><g id="ProcessOnG1033" transform="matrix(1.0,0.0,0.0,1.0,404.38196601125014,279.875)"><path id="ProcessOnPath1034" d="M0 0H13.0V16.25H0Z" fill="#fff" transform="matrix(1.0,0.0,0.0,1.0,-6.5,0.0)"/><text id="ProcessOnText1035" fill="#000000" font-weight="normal" font-style="normal" text-decoration="blink" font-family="微软雅黑" text-anchor="middle" font-size="13" x="0.0" y="13.325">是</text></g></g><g id="ProcessOnG1036" transform="matrix(1.0,0.0,0.0,1.0,520.1666666666667,731.0)" opacity="1.0"><path id="ProcessOnPath1037" d="M0.0 31.5C0.0 -10.5 65.66666666666663 -10.5 65.66666666666663 31.5C65.66666666666663 73.5 0.0 73.5 0.0 31.5Z" stroke="#4d9900" stroke-width="2.0" stroke-dasharray="none" opacity="1.0" fill="#4d9900"/><g id="ProcessOnG1038" transform="matrix(1.0,0.0,0.0,1.0,10.0,15.25)"><text id="ProcessOnText1039" fill="#000000" font-weight="normal" font-style="normal" text-decoration="blink" font-family="微软雅黑" text-anchor="middle" font-size="13" x="22.833333333333314" y="13.325">操作完</text><text id="ProcessOnText1040" fill="#000000" font-weight="normal" font-style="normal" text-decoration="blink" font-family="微软雅黑" text-anchor="middle" font-size="13" x="22.833333333333314" y="29.575">成</text></g></g><g id="ProcessOnG1041" transform="matrix(1.0,0.0,0.0,1.0,394.0,121.0)" opacity="1.0"><path id="ProcessOnPath1042" d="M0.0 0.0L97.0 0.0L97.0 57.0L0.0 57.0Z" stroke="#323232" stroke-width="0.0" stroke-dasharray="none" opacity="1.0" fill="none"/><g id="ProcessOnG1043" transform="matrix(1.0,0.0,0.0,1.0,0.0,14.125)"><text id="ProcessOnText1044" fill="#000000" font-weight="normal" font-style="normal" text-decoration="blink" font-family="微软雅黑" text-anchor="middle" font-size="23" x="48.5" y="23.575000000000003">put方法</text></g></g><g id="ProcessOnG1045" transform="matrix(1.0,0.0,0.0,1.0,500.0,253.0)" opacity="1.0"><path id="ProcessOnPath1046" d="M0.0 0.0L100.0 0.0L100.0 70.0L0.0 70.0Z" stroke="#ffffff" stroke-width="2.0" stroke-dasharray="none" opacity="1.0" fill="#99ccff"/><g id="ProcessOnG1047" transform="matrix(1.0,0.0,0.0,1.0,10.0,18.75)"><text id="ProcessOnText1048" fill="#000000" font-weight="normal" font-style="normal" text-decoration="blink" font-family="微软雅黑" text-anchor="middle" font-size="13" x="40.0" y="13.325">把table初始</text><text id="ProcessOnText1049" fill="#000000" font-weight="normal" font-style="normal" text-decoration="blink" font-family="微软雅黑" text-anchor="middle" font-size="13" x="40.0" y="29.575">化为默认大小</text></g></g><g id="ProcessOnG1050"><path id="ProcessOnPath1051" d="M550.0 323.0L550.0 426.0L346.2360679774998 426.0" stroke="#323232" stroke-width="2.0" stroke-dasharray="none" fill="none" marker-end="url(#ProcessOnMarker1052)"/></g><g id="ProcessOnG1054" transform="matrix(1.0,0.0,0.0,1.0,236.0,538.5)" opacity="1.0"><path id="ProcessOnPath1055" d="M0.0 35.0L45.0 0.0L90.0 35.0L45.0 70.0L0.0 35.0Z" stroke="#ff8000" stroke-width="2.0" stroke-dasharray="none" opacity="1.0" fill="#ff8000"/><g id="ProcessOnG1056" transform="matrix(1.0,0.0,0.0,1.0,10.0,18.75)"><text id="ProcessOnText1057" fill="#000000" font-weight="normal" font-style="normal" text-decoration="blink" font-family="微软雅黑" text-anchor="middle" font-size="13" x="35.0" y="13.325">key是否为</text><text id="ProcessOnText1058" fill="#000000" font-weight="normal" font-style="normal" text-decoration="blink" font-family="微软雅黑" text-anchor="middle" font-size="13" x="35.0" y="29.575">空</text></g></g><g id="ProcessOnG1059"><path id="ProcessOnPath1060" d="M281.0 450.0L281.0 494.25L281.0 494.25L281.0 523.2639320225002" stroke="#323232" stroke-width="2.0" stroke-dasharray="none" fill="none" marker-end="url(#ProcessOnMarker1061)"/></g><g id="ProcessOnG1063"><path id="ProcessOnPath1064" d="M326.0 573.5L414.5 573.5L414.5 573.5L487.7639320225002 573.5" stroke="#323232" stroke-width="2.0" stroke-dasharray="none" fill="none" marker-end="url(#ProcessOnMarker1065)"/><g id="ProcessOnG1067" transform="matrix(1.0,0.0,0.0,1.0,406.88196601125014,565.375)"><path id="ProcessOnPath1068" d="M0 0H13.0V16.25H0Z" fill="#fff" transform="matrix(1.0,0.0,0.0,1.0,-6.5,0.0)"/><text id="ProcessOnText1069" fill="#000000" font-weight="normal" font-style="normal" text-decoration="blink" font-family="微软雅黑" text-anchor="middle" font-size="13" x="0.0" y="13.325">是</text></g></g><g id="ProcessOnG1070" transform="matrix(1.0,0.0,0.0,1.0,503.0,549.5)" opacity="1.0"><path id="ProcessOnPath1071" d="M0.0 0.0L100.0 0.0L100.0 48.0L0.0 48.0Z" stroke="#99ccff" stroke-width="2.0" stroke-dasharray="none" opacity="1.0" fill="#99ccff"/><g id="ProcessOnG1072" transform="matrix(1.0,0.0,0.0,1.0,10.0,7.75)"><text id="ProcessOnText1073" fill="#000000" font-weight="normal" font-style="normal" text-decoration="blink" font-family="微软雅黑" text-anchor="middle" font-size="13" x="40.0" y="13.325">把该值放到ta</text><text id="ProcessOnText1074" fill="#000000" font-weight="normal" font-style="normal" text-decoration="blink" font-family="微软雅黑" text-anchor="middle" font-size="13" x="40.0" y="29.575">ble[0]中</text></g></g><g id="ProcessOnG1075"><path id="ProcessOnPath1076" d="M553.0 597.5L553.0 664.25L553.0 664.25L553.0 715.7639320225002" stroke="#323232" stroke-width="2.0" stroke-dasharray="none" fill="none" marker-end="url(#ProcessOnMarker1077)"/></g><g id="ProcessOnG1079" transform="matrix(1.0,0.0,0.0,1.0,231.0,738.5)" opacity="1.0"><path id="ProcessOnPath1080" d="M0.0 0.0L100.0 0.0L100.0 48.0L0.0 48.0Z" stroke="#99ccff" stroke-width="2.0" stroke-dasharray="none" opacity="1.0" fill="#99ccff"/><g id="ProcessOnG1081" transform="matrix(1.0,0.0,0.0,1.0,10.0,-0.375)"><text id="ProcessOnText1082" fill="#000000" font-weight="normal" font-style="normal" text-decoration="blink" font-family="微软雅黑" text-anchor="middle" font-size="13" x="40.0" y="13.325">计算key的ha</text><text id="ProcessOnText1083" fill="#000000" font-weight="normal" font-style="normal" text-decoration="blink" font-family="微软雅黑" text-anchor="middle" font-size="13" x="40.0" y="29.575">sh值和数组的</text><text id="ProcessOnText1084" fill="#000000" font-weight="normal" font-style="normal" text-decoration="blink" font-family="微软雅黑" text-anchor="middle" font-size="13" x="40.0" y="45.825">下标值</text></g></g><g id="ProcessOnG1085"><path id="ProcessOnPath1086" d="M281.0 608.5L281.0 673.5L281.0 673.5L281.0 723.2639320225002" stroke="#323232" stroke-width="2.0" stroke-dasharray="none" fill="none" marker-end="url(#ProcessOnMarker1087)"/><g id="ProcessOnG1089" transform="matrix(1.0,0.0,0.0,1.0,281.0,657.7569660112501)"><path id="ProcessOnPath1090" d="M0 0H13.0V16.25H0Z" fill="#fff" transform="matrix(1.0,0.0,0.0,1.0,-6.5,0.0)"/><text id="ProcessOnText1091" fill="#000000" font-weight="normal" font-style="normal" text-decoration="blink" font-family="微软雅黑" text-anchor="middle" font-size="13" x="0.0" y="13.325">否</text></g></g><g id="ProcessOnG1092"><path id="ProcessOnPath1093" d="M281.0 786.5L281.0 866.75L281.0 866.75L281.0 931.7639320225002" stroke="#323232" stroke-width="2.0" stroke-dasharray="none" fill="none" marker-end="url(#ProcessOnMarker1094)"/></g><g id="ProcessOnG1096" transform="matrix(1.0,0.0,0.0,1.0,231.0,949.5)" opacity="1.0"><path id="ProcessOnPath1097" d="M0.0 0.0L100.0 0.0L100.0 85.5L0.0 85.5Z" stroke="#99ccff" stroke-width="2.0" stroke-dasharray="none" opacity="1.0" fill="#99ccff"/><g id="ProcessOnG1098" transform="matrix(1.0,0.0,0.0,1.0,10.0,2.125)"><text id="ProcessOnText1099" fill="#000000" font-weight="normal" font-style="normal" text-decoration="blink" font-family="微软雅黑" text-anchor="middle" font-size="13" x="40.0" y="13.325">根据下标值找</text><text id="ProcessOnText1100" fill="#000000" font-weight="normal" font-style="normal" text-decoration="blink" font-family="微软雅黑" text-anchor="middle" font-size="13" x="40.0" y="29.575">到数组中对应</text><text id="ProcessOnText1101" fill="#000000" font-weight="normal" font-style="normal" text-decoration="blink" font-family="微软雅黑" text-anchor="middle" font-size="13" x="40.0" y="45.825">的槽，之后对</text><text id="ProcessOnText1102" fill="#000000" font-weight="normal" font-style="normal" text-decoration="blink" font-family="微软雅黑" text-anchor="middle" font-size="13" x="40.0" y="62.075">该槽所对应的</text><text id="ProcessOnText1103" fill="#000000" font-weight="normal" font-style="normal" text-decoration="blink" font-family="微软雅黑" text-anchor="middle" font-size="13" x="40.0" y="78.325">链表进行遍历</text></g></g><g id="ProcessOnG1104" transform="matrix(1.0,0.0,0.0,1.0,236.0,1153.5)" opacity="1.0"><path id="ProcessOnPath1105" d="M0.0 35.0L45.0 0.0L90.0 35.0L45.0 70.0L0.0 35.0Z" stroke="#ff8000" stroke-width="2.0" stroke-dasharray="none" opacity="1.0" fill="#ff8000"/><g id="ProcessOnG1106" transform="matrix(1.0,0.0,0.0,1.0,10.0,10.625)"><text id="ProcessOnText1107" fill="#000000" font-weight="normal" font-style="normal" text-decoration="blink" font-family="微软雅黑" text-anchor="middle" font-size="13" x="35.0" y="13.325">遍历找到与</text><text id="ProcessOnText1108" fill="#000000" font-weight="normal" font-style="normal" text-decoration="blink" font-family="微软雅黑" text-anchor="middle" font-size="13" x="35.0" y="29.575">该key的值</text><text id="ProcessOnText1109" fill="#000000" font-weight="normal" font-style="normal" text-decoration="blink" font-family="微软雅黑" text-anchor="middle" font-size="13" x="35.0" y="45.825">一致的节点</text></g></g><g id="ProcessOnG1110"><path id="ProcessOnPath1111" d="M281.0 1035.0L281.0 1094.25L281.0 1094.25L281.0 1138.2639320225003" stroke="#323232" stroke-width="2.0" stroke-dasharray="none" fill="none" marker-end="url(#ProcessOnMarker1112)"/></g><g id="ProcessOnG1114"><path id="ProcessOnPath1115" d="M326.0 1188.5L414.5 1188.5L414.5 1188.5L487.7639320225002 1188.5" stroke="#323232" stroke-width="2.0" stroke-dasharray="none" fill="none" marker-end="url(#ProcessOnMarker1116)"/><g id="ProcessOnG1118" transform="matrix(1.0,0.0,0.0,1.0,406.88196601125014,1180.375)"><path id="ProcessOnPath1119" d="M0 0H13.0V16.25H0Z" fill="#fff" transform="matrix(1.0,0.0,0.0,1.0,-6.5,0.0)"/><text id="ProcessOnText1120" fill="#000000" font-weight="normal" font-style="normal" text-decoration="blink" font-family="微软雅黑" text-anchor="middle" font-size="13" x="0.0" y="13.325">是</text></g></g><g id="ProcessOnG1121" transform="matrix(1.0,0.0,0.0,1.0,503.0,1164.5)" opacity="1.0"><path id="ProcessOnPath1122" d="M0.0 0.0L100.0 0.0L100.0 48.0L0.0 48.0Z" stroke="#99ccff" stroke-width="2.0" stroke-dasharray="none" opacity="1.0" fill="#99ccff"/><g id="ProcessOnG1123" transform="matrix(1.0,0.0,0.0,1.0,10.0,-0.375)"><text id="ProcessOnText1124" fill="#000000" font-weight="normal" font-style="normal" text-decoration="blink" font-family="微软雅黑" text-anchor="middle" font-size="13" x="40.0" y="13.325">把对应节点原</text><text id="ProcessOnText1125" fill="#000000" font-weight="normal" font-style="normal" text-decoration="blink" font-family="微软雅黑" text-anchor="middle" font-size="13" x="40.0" y="29.575">来值替换为新</text><text id="ProcessOnText1126" fill="#000000" font-weight="normal" font-style="normal" text-decoration="blink" font-family="微软雅黑" text-anchor="middle" font-size="13" x="40.0" y="45.825">值，旧值返回</text></g></g><g id="ProcessOnG1127" transform="matrix(1.0,0.0,0.0,1.0,520.1666666666667,1382.0)" opacity="1.0"><path id="ProcessOnPath1128" d="M0.0 31.5C0.0 -10.5 65.66666666666663 -10.5 65.66666666666663 31.5C65.66666666666663 73.5 0.0 73.5 0.0 31.5Z" stroke="#4d9900" stroke-width="2.0" stroke-dasharray="none" opacity="1.0" fill="#4d9900"/><g id="ProcessOnG1129" transform="matrix(1.0,0.0,0.0,1.0,10.0,15.25)"><text id="ProcessOnText1130" fill="#000000" font-weight="normal" font-style="normal" text-decoration="blink" font-family="微软雅黑" text-anchor="middle" font-size="13" x="22.833333333333314" y="13.325">操作完</text><text id="ProcessOnText1131" fill="#000000" font-weight="normal" font-style="normal" text-decoration="blink" font-family="微软雅黑" text-anchor="middle" font-size="13" x="22.833333333333314" y="29.575">成</text></g></g><g id="ProcessOnG1132"><path id="ProcessOnPath1133" d="M553.0 1212.5L553.0 1297.25L553.0 1297.25L553.0 1366.7639320225003" stroke="#323232" stroke-width="2.0" stroke-dasharray="none" fill="none" marker-end="url(#ProcessOnMarker1134)"/></g><g id="ProcessOnG1136" transform="matrix(1.0,0.0,0.0,1.0,231.0,1382.0)" opacity="1.0"><path id="ProcessOnPath1137" d="M0.0 0.0L100.0 0.0L100.0 48.0L0.0 48.0Z" stroke="#99ccff" stroke-width="2.0" stroke-dasharray="none" opacity="1.0" fill="#99ccff"/><g id="ProcessOnG1138" transform="matrix(1.0,0.0,0.0,1.0,10.0,-0.375)"><text id="ProcessOnText1139" fill="#000000" font-weight="normal" font-style="normal" text-decoration="blink" font-family="微软雅黑" text-anchor="middle" font-size="13" x="40.0" y="13.325">要把该值作为</text><text id="ProcessOnText1140" fill="#000000" font-weight="normal" font-style="normal" text-decoration="blink" font-family="微软雅黑" text-anchor="middle" font-size="13" x="40.0" y="29.575">新的节点添加</text><text id="ProcessOnText1141" fill="#000000" font-weight="normal" font-style="normal" text-decoration="blink" font-family="微软雅黑" text-anchor="middle" font-size="13" x="40.0" y="45.825">到table中了</text></g></g><g id="ProcessOnG1142"><path id="ProcessOnPath1143" d="M281.0 1223.5L281.0 1302.75L281.0 1302.75L281.0 1366.7639320225003" stroke="#323232" stroke-width="2.0" stroke-dasharray="none" fill="none" marker-end="url(#ProcessOnMarker1144)"/><g id="ProcessOnG1146" transform="matrix(1.0,0.0,0.0,1.0,281.0,1287.0069660112501)"><path id="ProcessOnPath1147" d="M0 0H13.0V16.25H0Z" fill="#fff" transform="matrix(1.0,0.0,0.0,1.0,-6.5,0.0)"/><text id="ProcessOnText1148" fill="#000000" font-weight="normal" font-style="normal" text-decoration="blink" font-family="微软雅黑" text-anchor="middle" font-size="13" x="0.0" y="13.325">否</text></g></g><g id="ProcessOnG1149" transform="matrix(1.0,0.0,0.0,1.0,236.0,1586.5)" opacity="1.0"><path id="ProcessOnPath1150" d="M0.0 35.0L45.0 0.0L90.0 35.0L45.0 70.0L0.0 35.0Z" stroke="#ff8000" stroke-width="2.0" stroke-dasharray="none" opacity="1.0" fill="#ff8000"/><g id="ProcessOnG1151" transform="matrix(1.0,0.0,0.0,1.0,10.0,2.5)"><text id="ProcessOnText1152" fill="#000000" font-weight="normal" font-style="normal" text-decoration="blink" font-family="微软雅黑" text-anchor="middle" font-size="13" x="35.0" y="13.325">根据扩展后</text><text id="ProcessOnText1153" fill="#000000" font-weight="normal" font-style="normal" text-decoration="blink" font-family="微软雅黑" text-anchor="middle" font-size="13" x="35.0" y="29.575">的容量大小</text><text id="ProcessOnText1154" fill="#000000" font-weight="normal" font-style="normal" text-decoration="blink" font-family="微软雅黑" text-anchor="middle" font-size="13" x="35.0" y="45.825">判断需不需</text><text id="ProcessOnText1155" fill="#000000" font-weight="normal" font-style="normal" text-decoration="blink" font-family="微软雅黑" text-anchor="middle" font-size="13" x="35.0" y="62.075">要扩容</text></g></g><g id="ProcessOnG1156"><path id="ProcessOnPath1157" d="M281.0 1430.0L281.0 1508.25L281.0 1508.25L281.0 1571.2639320225003" stroke="#323232" stroke-width="2.0" stroke-dasharray="none" fill="none" marker-end="url(#ProcessOnMarker1158)"/></g><g id="ProcessOnG1160" transform="matrix(1.0,0.0,0.0,1.0,503.0,1597.5)" opacity="1.0"><path id="ProcessOnPath1161" d="M0.0 0.0L100.0 0.0L100.0 48.0L0.0 48.0Z" stroke="#99ccff" stroke-width="2.0" stroke-dasharray="none" opacity="1.0" fill="#99ccff"/><g id="ProcessOnG1162" transform="matrix(1.0,0.0,0.0,1.0,10.0,-0.375)"><text id="ProcessOnText1163" fill="#000000" font-weight="normal" font-style="normal" text-decoration="blink" font-family="微软雅黑" text-anchor="middle" font-size="13" x="40.0" y="13.325">直接把该值插</text><text id="ProcessOnText1164" fill="#000000" font-weight="normal" font-style="normal" text-decoration="blink" font-family="微软雅黑" text-anchor="middle" font-size="13" x="40.0" y="29.575">入到table中</text><text id="ProcessOnText1165" fill="#000000" font-weight="normal" font-style="normal" text-decoration="blink" font-family="微软雅黑" text-anchor="middle" font-size="13" x="40.0" y="45.825">对应的位置</text></g></g><g id="ProcessOnG1166"><path id="ProcessOnPath1167" d="M326.0 1621.5L414.5 1621.5L414.5 1621.5L487.7639320225002 1621.5" stroke="#323232" stroke-width="2.0" stroke-dasharray="none" fill="none" marker-end="url(#ProcessOnMarker1168)"/><g id="ProcessOnG1170" transform="matrix(1.0,0.0,0.0,1.0,406.88196601125014,1613.375)"><path id="ProcessOnPath1171" d="M0 0H39.0V16.25H0Z" fill="#fff" transform="matrix(1.0,0.0,0.0,1.0,-19.5,0.0)"/><text id="ProcessOnText1172" fill="#000000" font-weight="normal" font-style="normal" text-decoration="blink" font-family="微软雅黑" text-anchor="middle" font-size="13" x="0.0" y="13.325">不需要</text></g></g><g id="ProcessOnG1173" transform="matrix(1.0,0.0,0.0,1.0,520.1666666666667,1818.0)" opacity="1.0"><path id="ProcessOnPath1174" d="M0.0 31.5C0.0 -10.5 65.66666666666663 -10.5 65.66666666666663 31.5C65.66666666666663 73.5 0.0 73.5 0.0 31.5Z" stroke="#4d9900" stroke-width="2.0" stroke-dasharray="none" opacity="1.0" fill="#4d9900"/><g id="ProcessOnG1175" transform="matrix(1.0,0.0,0.0,1.0,10.0,15.25)"><text id="ProcessOnText1176" fill="#000000" font-weight="normal" font-style="normal" text-decoration="blink" font-family="微软雅黑" text-anchor="middle" font-size="13" x="22.833333333333314" y="13.325">操作完</text><text id="ProcessOnText1177" fill="#000000" font-weight="normal" font-style="normal" text-decoration="blink" font-family="微软雅黑" text-anchor="middle" font-size="13" x="22.833333333333314" y="29.575">成</text></g></g><g id="ProcessOnG1178"><path id="ProcessOnPath1179" d="M553.0 1645.5L553.0 1731.75L553.0 1731.75L553.0 1802.7639320225003" stroke="#323232" stroke-width="2.0" stroke-dasharray="none" fill="none" marker-end="url(#ProcessOnMarker1180)"/></g><g id="ProcessOnG1182" transform="matrix(1.0,0.0,0.0,1.0,231.0,1825.5)" opacity="1.0"><path id="ProcessOnPath1183" d="M0.0 0.0L100.0 0.0L100.0 82.5L0.0 82.5Z" stroke="#99ccff" stroke-width="2.0" stroke-dasharray="none" opacity="1.0" fill="#99ccff"/><g id="ProcessOnG1184" transform="matrix(1.0,0.0,0.0,1.0,10.0,8.75)"><text id="ProcessOnText1185" fill="#000000" font-weight="normal" font-style="normal" text-decoration="blink" font-family="微软雅黑" text-anchor="middle" font-size="13" x="40.0" y="13.325">开始扩容，创</text><text id="ProcessOnText1186" fill="#000000" font-weight="normal" font-style="normal" text-decoration="blink" font-family="微软雅黑" text-anchor="middle" font-size="13" x="40.0" y="29.575">建容量为原来</text><text id="ProcessOnText1187" fill="#000000" font-weight="normal" font-style="normal" text-decoration="blink" font-family="微软雅黑" text-anchor="middle" font-size="13" x="40.0" y="45.825">table的两倍</text><text id="ProcessOnText1188" fill="#000000" font-weight="normal" font-style="normal" text-decoration="blink" font-family="微软雅黑" text-anchor="middle" font-size="13" x="40.0" y="62.075">的新的table</text></g></g><g id="ProcessOnG1189"><path id="ProcessOnPath1190" d="M281.0 1656.5L281.0 1741.0L281.0 1741.0L281.0 1810.2639320225003" stroke="#323232" stroke-width="2.0" stroke-dasharray="none" fill="none" marker-end="url(#ProcessOnMarker1191)"/><g id="ProcessOnG1193" transform="matrix(1.0,0.0,0.0,1.0,281.0,1725.2569660112501)"><path id="ProcessOnPath1194" d="M0 0H26.0V16.25H0Z" fill="#fff" transform="matrix(1.0,0.0,0.0,1.0,-13.0,0.0)"/><text id="ProcessOnText1195" fill="#000000" font-weight="normal" font-style="normal" text-decoration="blink" font-family="微软雅黑" text-anchor="middle" font-size="13" x="0.0" y="13.325">需要</text></g></g><g id="ProcessOnG1196" transform="matrix(1.0,0.0,0.0,1.0,184.5,2099.5)" opacity="1.0"><path id="ProcessOnPath1197" d="M0.0 0.0L193.0 0.0L193.0 128.5L0.0 128.5Z" stroke="#99ccff" stroke-width="2.0" stroke-dasharray="none" opacity="1.0" fill="#ff6666"/><g id="ProcessOnG1198" transform="matrix(1.0,0.0,0.0,1.0,10.0,23.625)"><text id="ProcessOnText1199" fill="#000000" font-weight="normal" font-style="normal" text-decoration="blink" font-family="微软雅黑" text-anchor="middle" font-size="13" x="86.5" y="13.325">把旧的table中所有的数据遍历</text><text id="ProcessOnText1200" fill="#000000" font-weight="normal" font-style="normal" text-decoration="blink" font-family="微软雅黑" text-anchor="middle" font-size="13" x="86.5" y="29.575">一遍，对于每一个数据都把其</text><text id="ProcessOnText1201" fill="#000000" font-weight="normal" font-style="normal" text-decoration="blink" font-family="微软雅黑" text-anchor="middle" font-size="13" x="86.5" y="45.825">插入到新的table中的对应的位</text><text id="ProcessOnText1202" fill="#000000" font-weight="normal" font-style="normal" text-decoration="blink" font-family="微软雅黑" text-anchor="middle" font-size="13" x="86.5" y="62.075">置，之后把table替换为新的ta</text><text id="ProcessOnText1203" fill="#000000" font-weight="normal" font-style="normal" text-decoration="blink" font-family="微软雅黑" text-anchor="middle" font-size="13" x="86.5" y="78.325">ble</text></g></g><g id="ProcessOnG1204"><path id="ProcessOnPath1205" d="M281.0 1908.0L281.0 2003.75L281.0 2003.75L281.0 2084.2639320225003" stroke="#323232" stroke-width="2.0" stroke-dasharray="none" fill="none" marker-end="url(#ProcessOnMarker1206)"/></g><g id="ProcessOnG1208" transform="matrix(1.0,0.0,0.0,1.0,503.0,2139.75)" opacity="1.0"><path id="ProcessOnPath1209" d="M0.0 0.0L100.0 0.0L100.0 48.0L0.0 48.0Z" stroke="#99ccff" stroke-width="2.0" stroke-dasharray="none" opacity="1.0" fill="#99ccff"/><g id="ProcessOnG1210" transform="matrix(1.0,0.0,0.0,1.0,10.0,-0.375)"><text id="ProcessOnText1211" fill="#000000" font-weight="normal" font-style="normal" text-decoration="blink" font-family="微软雅黑" text-anchor="middle" font-size="13" x="40.0" y="13.325">把该值插入到</text><text id="ProcessOnText1212" fill="#000000" font-weight="normal" font-style="normal" text-decoration="blink" font-family="微软雅黑" text-anchor="middle" font-size="13" x="40.0" y="29.575">新的table中</text><text id="ProcessOnText1213" fill="#000000" font-weight="normal" font-style="normal" text-decoration="blink" font-family="微软雅黑" text-anchor="middle" font-size="13" x="40.0" y="45.825">对应的位置</text></g></g><g id="ProcessOnG1214" transform="matrix(1.0,0.0,0.0,1.0,520.1666666666667,2347.0)" opacity="1.0"><path id="ProcessOnPath1215" d="M0.0 31.5C0.0 -10.5 65.66666666666663 -10.5 65.66666666666663 31.5C65.66666666666663 73.5 0.0 73.5 0.0 31.5Z" stroke="#4d9900" stroke-width="2.0" stroke-dasharray="none" opacity="1.0" fill="#4d9900"/><g id="ProcessOnG1216" transform="matrix(1.0,0.0,0.0,1.0,10.0,15.25)"><text id="ProcessOnText1217" fill="#000000" font-weight="normal" font-style="normal" text-decoration="blink" font-family="微软雅黑" text-anchor="middle" font-size="13" x="22.833333333333314" y="13.325">操作完</text><text id="ProcessOnText1218" fill="#000000" font-weight="normal" font-style="normal" text-decoration="blink" font-family="微软雅黑" text-anchor="middle" font-size="13" x="22.833333333333314" y="29.575">成</text></g></g><g id="ProcessOnG1219"><path id="ProcessOnPath1220" d="M553.0 2187.75L553.0 2267.375L553.0 2267.375L553.0 2331.7639320225003" stroke="#323232" stroke-width="2.0" stroke-dasharray="none" fill="none" marker-end="url(#ProcessOnMarker1221)"/></g><g id="ProcessOnG1223"><path id="ProcessOnPath1224" d="M377.5 2163.75L440.25 2163.75L440.25 2163.75L487.7639320225002 2163.75" stroke="#323232" stroke-width="2.0" stroke-dasharray="none" fill="none" marker-end="url(#ProcessOnMarker1225)"/></g></g></g></svg>