<svg xmlns="http://www.w3.org/2000/svg" width="680" height="470" viewBox="0 0 680 470"><rect x="0" y="0" width="680" height="470" fill="#ffffff"/><defs><marker id="aG" viewBox="0 0 10 10" refX="8" refY="5" markerWidth="6" markerHeight="6" orient="auto-start-reverse"><path d="M2 1L8 5L2 9" fill="none" stroke="#73726c" stroke-width="1.5" stroke-linecap="round" stroke-linejoin="round"/></marker><marker id="aT" viewBox="0 0 10 10" refX="8" refY="5" markerWidth="6" markerHeight="6" orient="auto-start-reverse"><path d="M2 1L8 5L2 9" fill="none" stroke="#1D9E75" stroke-width="1.5" stroke-linecap="round" stroke-linejoin="round"/></marker><marker id="aP" viewBox="0 0 10 10" refX="8" refY="5" markerWidth="6" markerHeight="6" orient="auto-start-reverse"><path d="M2 1L8 5L2 9" fill="none" stroke="#7F77DD" stroke-width="1.5" stroke-linecap="round" stroke-linejoin="round"/></marker></defs><style>text{font-family:"Noto Sans CJK SC","PingFang SC","Microsoft YaHei",sans-serif}.t{font-size:14px;fill:#3d3d3a}.ts{font-size:12px;fill:#73726c}.th{font-size:14px;font-weight:600;fill:#3d3d3a}</style><line x1="160" y1="48" x2="160" y2="418" stroke="#9c9a92" stroke-width="1"/><circle cx="160" cy="68" r="4" fill="#7F77DD"/><circle cx="160" cy="148" r="4" fill="#7F77DD"/><circle cx="160" cy="228" r="4" fill="#1D9E75"/><circle cx="160" cy="308" r="4" fill="#1D9E75"/><circle cx="160" cy="388" r="4" fill="#D85A30"/><text x="140" y="72" font-size="12" text-anchor="end">2003–06</text><text x="140" y="152" font-size="12" text-anchor="end">2006–08</text><text x="140" y="232" font-size="12" text-anchor="end">2008–13</text><text x="140" y="312" font-size="12" text-anchor="end">2014–18</text><text x="140" y="392" font-size="12" text-anchor="end">2019–今</text><rect x="185" y="40" width="440" height="56" rx="8" fill="#EEEDFE" stroke="#534AB7" stroke-width="1"/><text x="405.0" y="63.0" font-size="14" text-anchor="middle" fill="#3C3489" font-weight="600">谷歌三驾马车论文</text><text x="405.0" y="83.0" font-size="12" text-anchor="middle" fill="#534AB7">GFS / MapReduce / Bigtable</text><rect x="185" y="120" width="440" height="56" rx="8" fill="#EEEDFE" stroke="#534AB7" stroke-width="1"/><text x="405.0" y="143.0" font-size="14" text-anchor="middle" fill="#3C3489" font-weight="600">Hadoop 诞生</text><text x="405.0" y="163.0" font-size="12" text-anchor="middle" fill="#534AB7">开源实现,HDFS + MapReduce</text><rect x="185" y="200" width="440" height="56" rx="8" fill="#E1F5EE" stroke="#0F6E56" stroke-width="1"/><text x="405.0" y="223.0" font-size="14" text-anchor="middle" fill="#085041" font-weight="600">生态大爆发</text><text x="405.0" y="243.0" font-size="12" text-anchor="middle" fill="#0F6E56">Hive / HBase / Kafka / NoSQL</text><rect x="185" y="280" width="440" height="56" rx="8" fill="#E1F5EE" stroke="#0F6E56" stroke-width="1"/><text x="405.0" y="303.0" font-size="14" text-anchor="middle" fill="#085041" font-weight="600">内存计算与流处理</text><text x="405.0" y="323.0" font-size="12" text-anchor="middle" fill="#0F6E56">Spark / Flink 取代 MapReduce</text><rect x="185" y="360" width="440" height="56" rx="8" fill="#FAECE7" stroke="#993C1D" stroke-width="1"/><text x="405.0" y="383.0" font-size="14" text-anchor="middle" fill="#712B13" font-weight="600">云原生与湖仓一体</text><text x="405.0" y="403.0" font-size="12" text-anchor="middle" fill="#993C1D">Snowflake / Iceberg / 存算分离</text></svg>