<svg xmlns="http://www.w3.org/2000/svg" width="680" height="560" viewBox="0 0 680 560"><rect x="0" y="0" width="680" height="560" fill="#ffffff"/><defs><marker id="aG" viewBox="0 0 10 10" refX="8" refY="5" markerWidth="6" markerHeight="6" orient="auto-start-reverse"><path d="M2 1L8 5L2 9" fill="none" stroke="#73726c" stroke-width="1.5" stroke-linecap="round" stroke-linejoin="round"/></marker><marker id="aT" viewBox="0 0 10 10" refX="8" refY="5" markerWidth="6" markerHeight="6" orient="auto-start-reverse"><path d="M2 1L8 5L2 9" fill="none" stroke="#1D9E75" stroke-width="1.5" stroke-linecap="round" stroke-linejoin="round"/></marker><marker id="aP" viewBox="0 0 10 10" refX="8" refY="5" markerWidth="6" markerHeight="6" orient="auto-start-reverse"><path d="M2 1L8 5L2 9" fill="none" stroke="#7F77DD" stroke-width="1.5" stroke-linecap="round" stroke-linejoin="round"/></marker></defs><style>text{font-family:"Noto Sans CJK SC","PingFang SC","Microsoft YaHei",sans-serif}.t{font-size:14px;fill:#3d3d3a}.ts{font-size:12px;fill:#73726c}.th{font-size:14px;font-weight:600;fill:#3d3d3a}</style><rect x="220" y="30" width="240" height="44" rx="8" fill="#F1EFE8" stroke="#5F5E5A" stroke-width="1"/><text x="340.0" y="57.0" font-size="14" text-anchor="middle" fill="#444441" font-weight="600">SELECT ... GROUP BY ...</text><line x1="340" y1="74" x2="340" y2="106" stroke="#73726c" stroke-width="1.2"  marker-end="url(#aG)"/><line x1="340" y1="166" x2="340" y2="198" stroke="#73726c" stroke-width="1.2"  marker-end="url(#aG)"/><line x1="340" y1="258" x2="340" y2="290" stroke="#73726c" stroke-width="1.2"  marker-end="url(#aG)"/><line x1="340" y1="350" x2="340" y2="382" stroke="#73726c" stroke-width="1.2"  marker-end="url(#aG)"/><line x1="340" y1="442" x2="340" y2="474" stroke="#73726c" stroke-width="1.2"  marker-end="url(#aG)"/><rect x="220" y="110" width="240" height="56" rx="8" fill="#EEEDFE" stroke="#534AB7" stroke-width="1"/><text x="340.0" y="133.0" font-size="14" text-anchor="middle" fill="#3C3489" font-weight="600">解析器 Parser</text><text x="340.0" y="153.0" font-size="12" text-anchor="middle" fill="#534AB7">Antlr 生成抽象语法树 AST</text><rect x="220" y="202" width="240" height="56" rx="8" fill="#EEEDFE" stroke="#534AB7" stroke-width="1"/><text x="340.0" y="225.0" font-size="14" text-anchor="middle" fill="#3C3489" font-weight="600">语义分析</text><text x="340.0" y="245.0" font-size="12" text-anchor="middle" fill="#534AB7">查元数据,校验表和字段</text><rect x="500" y="202" width="150" height="56" rx="8" fill="#FAEEDA" stroke="#854F0B" stroke-width="1"/><text x="575.0" y="225.0" font-size="14" text-anchor="middle" fill="#633806" font-weight="600">Metastore</text><text x="575.0" y="245.0" font-size="12" text-anchor="middle" fill="#854F0B">表 → HDFS 路径</text><line x1="496" y1="230" x2="464" y2="230" stroke="#73726c" stroke-width="1.2"  marker-end="url(#aG)"/><rect x="220" y="294" width="240" height="56" rx="8" fill="#EEEDFE" stroke="#534AB7" stroke-width="1"/><text x="340.0" y="317.0" font-size="14" text-anchor="middle" fill="#3C3489" font-weight="600">逻辑计划 + 优化</text><text x="340.0" y="337.0" font-size="12" text-anchor="middle" fill="#534AB7">谓词下推、列裁剪、分区裁剪</text><rect x="220" y="386" width="240" height="56" rx="8" fill="#E1F5EE" stroke="#0F6E56" stroke-width="1"/><text x="340.0" y="409.0" font-size="14" text-anchor="middle" fill="#085041" font-weight="600">物理计划</text><text x="340.0" y="429.0" font-size="12" text-anchor="middle" fill="#0F6E56">切成 MR / Tez / Spark 任务</text><rect x="220" y="478" width="240" height="56" rx="8" fill="#E1F5EE" stroke="#0F6E56" stroke-width="1"/><text x="340.0" y="501.0" font-size="14" text-anchor="middle" fill="#085041" font-weight="600">提交到集群执行</text><text x="340.0" y="521.0" font-size="12" text-anchor="middle" fill="#0F6E56">YARN 调度,读写 HDFS</text></svg>