<svg xmlns="http://www.w3.org/2000/svg" width="680" height="370" viewBox="0 0 680 370"><rect x="0" y="0" width="680" height="370" fill="#ffffff"/><defs><marker id="aG" viewBox="0 0 10 10" refX="8" refY="5" markerWidth="6" markerHeight="6" orient="auto-start-reverse"><path d="M2 1L8 5L2 9" fill="none" stroke="#73726c" stroke-width="1.5" stroke-linecap="round" stroke-linejoin="round"/></marker><marker id="aT" viewBox="0 0 10 10" refX="8" refY="5" markerWidth="6" markerHeight="6" orient="auto-start-reverse"><path d="M2 1L8 5L2 9" fill="none" stroke="#1D9E75" stroke-width="1.5" stroke-linecap="round" stroke-linejoin="round"/></marker><marker id="aP" viewBox="0 0 10 10" refX="8" refY="5" markerWidth="6" markerHeight="6" orient="auto-start-reverse"><path d="M2 1L8 5L2 9" fill="none" stroke="#7F77DD" stroke-width="1.5" stroke-linecap="round" stroke-linejoin="round"/></marker></defs><style>text{font-family:"Noto Sans CJK SC","PingFang SC","Microsoft YaHei",sans-serif}.t{font-size:14px;fill:#3d3d3a}.ts{font-size:12px;fill:#73726c}.th{font-size:14px;font-weight:600;fill:#3d3d3a}</style><rect x="130" y="16" width="120" height="36" rx="8" fill="#F1EFE8" stroke="#5F5E5A" stroke-width="1"/><text x="190.0" y="39.0" font-size="14" text-anchor="middle" fill="#444441" font-weight="600">客户端</text><rect x="430" y="16" width="120" height="36" rx="8" fill="#F1EFE8" stroke="#5F5E5A" stroke-width="1"/><text x="490.0" y="39.0" font-size="14" text-anchor="middle" fill="#444441" font-weight="600">客户端</text><line x1="190" y1="52" x2="190" y2="76" stroke="#73726c" stroke-width="1.2"  marker-end="url(#aG)"/><line x1="490" y1="52" x2="490" y2="76" stroke="#73726c" stroke-width="1.2"  marker-end="url(#aG)"/><rect x="50" y="80" width="260" height="190" rx="12" fill="none" stroke="#9c9a92" stroke-width="1" stroke-dasharray="4 4"/><text x="70" y="107" font-size="14" font-weight="600">左半边(2 台)</text><rect x="370" y="80" width="260" height="190" rx="12" fill="none" stroke="#9c9a92" stroke-width="1" stroke-dasharray="4 4"/><text x="390" y="107" font-size="14" font-weight="600">右半边(3 台)</text><path d="M340 60 L332 105 L348 150 L334 195 L346 240 L340 290" fill="none" stroke="#E24B4A" stroke-width="1.5" stroke-dasharray="6 4"/><text x="340" y="316" font-size="12" text-anchor="middle">网络分区</text><rect x="80" y="118" width="200" height="56" rx="8" fill="#FCEBEB" stroke="#A32D2D" stroke-width="1"/><text x="180.0" y="141.0" font-size="14" text-anchor="middle" fill="#791F1F" font-weight="600">节点 1 — 自封 master</text><text x="180.0" y="161.0" font-size="12" text-anchor="middle" fill="#A32D2D">继续接受写入</text><rect x="80" y="196" width="200" height="44" rx="8" fill="#F1EFE8" stroke="#5F5E5A" stroke-width="1"/><text x="180.0" y="223.0" font-size="14" text-anchor="middle" fill="#444441" font-weight="600">节点 2</text><rect x="400" y="118" width="200" height="56" rx="8" fill="#FCEBEB" stroke="#A32D2D" stroke-width="1"/><text x="500.0" y="141.0" font-size="14" text-anchor="middle" fill="#791F1F" font-weight="600">节点 3 — 也当选 master</text><text x="500.0" y="161.0" font-size="12" text-anchor="middle" fill="#A32D2D">继续接受写入</text><rect x="400" y="196" width="200" height="44" rx="8" fill="#F1EFE8" stroke="#5F5E5A" stroke-width="1"/><text x="500.0" y="223.0" font-size="14" text-anchor="middle" fill="#444441" font-weight="600">节点 4、节点 5</text><text x="340" y="344" font-size="12" text-anchor="middle">同一份索引在两侧独立演化;分区恢复后只能保留一侧,另一侧已确认的写入被丢弃</text></svg>