<svg xmlns="http://www.w3.org/2000/svg" width="680" height="480" viewBox="0 0 680 480"><rect x="0" y="0" width="680" height="480" fill="#ffffff"/><defs><marker id="aG" viewBox="0 0 10 10" refX="8" refY="5" markerWidth="6" markerHeight="6" orient="auto-start-reverse"><path d="M2 1L8 5L2 9" fill="none" stroke="#73726c" stroke-width="1.5" stroke-linecap="round" stroke-linejoin="round"/></marker><marker id="aT" viewBox="0 0 10 10" refX="8" refY="5" markerWidth="6" markerHeight="6" orient="auto-start-reverse"><path d="M2 1L8 5L2 9" fill="none" stroke="#1D9E75" stroke-width="1.5" stroke-linecap="round" stroke-linejoin="round"/></marker><marker id="aP" viewBox="0 0 10 10" refX="8" refY="5" markerWidth="6" markerHeight="6" orient="auto-start-reverse"><path d="M2 1L8 5L2 9" fill="none" stroke="#7F77DD" stroke-width="1.5" stroke-linecap="round" stroke-linejoin="round"/></marker></defs><style>text{font-family:"Noto Sans CJK SC","PingFang SC","Microsoft YaHei",sans-serif}.t{font-size:14px;fill:#3d3d3a}.ts{font-size:12px;fill:#73726c}.th{font-size:14px;font-weight:600;fill:#3d3d3a}</style><rect x="40" y="70" width="290" height="340" rx="12" fill="none" stroke="#9c9a92" stroke-width="1" stroke-dasharray="4 4"/><text x="60" y="99" font-size="14" font-weight="600">外挂协调服务</text><rect x="55" y="120" width="78" height="48" rx="8" fill="#F1EFE8" stroke="#5F5E5A" stroke-width="1"/><text x="94.0" y="149.0" font-size="14" text-anchor="middle" fill="#444441" font-weight="600">节点 1</text><rect x="145" y="120" width="78" height="48" rx="8" fill="#F1EFE8" stroke="#5F5E5A" stroke-width="1"/><text x="184.0" y="149.0" font-size="14" text-anchor="middle" fill="#444441" font-weight="600">节点 2</text><rect x="235" y="120" width="78" height="48" rx="8" fill="#F1EFE8" stroke="#5F5E5A" stroke-width="1"/><text x="274.0" y="149.0" font-size="14" text-anchor="middle" fill="#444441" font-weight="600">节点 3</text><line x1="94" y1="168" x2="130" y2="246" stroke="#9c9a92" stroke-width="0.9" stroke-dasharray="4 3"/><line x1="184" y1="168" x2="185" y2="246" stroke="#9c9a92" stroke-width="0.9" stroke-dasharray="4 3"/><line x1="274" y1="168" x2="240" y2="246" stroke="#9c9a92" stroke-width="0.9" stroke-dasharray="4 3"/><rect x="70" y="250" width="230" height="120" rx="12" fill="#FAEEDA" stroke="#854F0B" stroke-width="1"/><text x="185" y="279" font-size="14" text-anchor="middle" fill="#633806" font-weight="600">ZooKeeper 集群</text><rect x="88" y="300" width="60" height="40" rx="8" fill="#F1EFE8" stroke="#5F5E5A" stroke-width="1"/><text x="118.0" y="325.0" font-size="14" text-anchor="middle" fill="#444441" font-weight="600">ZK 1</text><rect x="155" y="300" width="60" height="40" rx="8" fill="#F1EFE8" stroke="#5F5E5A" stroke-width="1"/><text x="185.0" y="325.0" font-size="14" text-anchor="middle" fill="#444441" font-weight="600">ZK 2</text><rect x="222" y="300" width="60" height="40" rx="8" fill="#F1EFE8" stroke="#5F5E5A" stroke-width="1"/><text x="252.0" y="325.0" font-size="14" text-anchor="middle" fill="#444441" font-weight="600">ZK 3</text><text x="185" y="396" font-size="12" text-anchor="middle">独立部署、独立运维的集群</text><rect x="350" y="70" width="290" height="340" rx="12" fill="none" stroke="#9c9a92" stroke-width="1" stroke-dasharray="4 4"/><text x="370" y="99" font-size="14" font-weight="600">内嵌 Raft 库</text><rect x="370" y="115" width="250" height="70" rx="8" fill="#E1F5EE" stroke="#0F6E56" stroke-width="1"/><text x="386" y="146" font-size="14" fill="#085041" font-weight="600">节点 1</text><text x="386" y="168" font-size="12" fill="#0F6E56">业务 + 存储</text><rect x="510" y="128" width="90" height="44" rx="8" fill="#EEEDFE" stroke="#534AB7" stroke-width="1"/><text x="555.0" y="155.0" font-size="14" text-anchor="middle" fill="#3C3489" font-weight="600">Raft 库</text><rect x="370" y="210" width="250" height="70" rx="8" fill="#E1F5EE" stroke="#0F6E56" stroke-width="1"/><text x="386" y="241" font-size="14" fill="#085041" font-weight="600">节点 2</text><text x="386" y="263" font-size="12" fill="#0F6E56">业务 + 存储</text><rect x="510" y="223" width="90" height="44" rx="8" fill="#EEEDFE" stroke="#534AB7" stroke-width="1"/><text x="555.0" y="250.0" font-size="14" text-anchor="middle" fill="#3C3489" font-weight="600">Raft 库</text><rect x="370" y="305" width="250" height="70" rx="8" fill="#E1F5EE" stroke="#0F6E56" stroke-width="1"/><text x="386" y="336" font-size="14" fill="#085041" font-weight="600">节点 3</text><text x="386" y="358" font-size="12" fill="#0F6E56">业务 + 存储</text><rect x="510" y="318" width="90" height="44" rx="8" fill="#EEEDFE" stroke="#534AB7" stroke-width="1"/><text x="555.0" y="345.0" font-size="14" text-anchor="middle" fill="#3C3489" font-weight="600">Raft 库</text><line x1="555" y1="172" x2="555" y2="219" stroke="#7F77DD" stroke-width="1.5" marker-start="url(#aP)" marker-end="url(#aP)"/><line x1="555" y1="267" x2="555" y2="314" stroke="#7F77DD" stroke-width="1.5" marker-start="url(#aP)" marker-end="url(#aP)"/><text x="440" y="200" font-size="12" text-anchor="middle">库与库直接互连:选举、日志复制</text><text x="340" y="446" font-size="12" text-anchor="middle">左:多一个要部署、监控、升级的集群,元数据存在“别人家”</text><text x="340" y="468" font-size="12" text-anchor="middle">右:共识随你的进程一起启动,少一个故障域和网络跳数</text></svg>