<svg xmlns="http://www.w3.org/2000/svg" width="680" height="400" viewBox="0 0 680 400"><rect x="0" y="0" width="680" height="400" fill="#ffffff"/><defs><marker id="aG" viewBox="0 0 10 10" refX="8" refY="5" markerWidth="6" markerHeight="6" orient="auto-start-reverse"><path d="M2 1L8 5L2 9" fill="none" stroke="#73726c" stroke-width="1.5" stroke-linecap="round" stroke-linejoin="round"/></marker><marker id="aT" viewBox="0 0 10 10" refX="8" refY="5" markerWidth="6" markerHeight="6" orient="auto-start-reverse"><path d="M2 1L8 5L2 9" fill="none" stroke="#1D9E75" stroke-width="1.5" stroke-linecap="round" stroke-linejoin="round"/></marker><marker id="aP" viewBox="0 0 10 10" refX="8" refY="5" markerWidth="6" markerHeight="6" orient="auto-start-reverse"><path d="M2 1L8 5L2 9" fill="none" stroke="#7F77DD" stroke-width="1.5" stroke-linecap="round" stroke-linejoin="round"/></marker></defs><style>text{font-family:"Noto Sans CJK SC","PingFang SC","Microsoft YaHei",sans-serif}.t{font-size:14px;fill:#3d3d3a}.ts{font-size:12px;fill:#73726c}.th{font-size:14px;font-weight:600;fill:#3d3d3a}</style><rect x="250" y="40" width="180" height="56" rx="8" fill="#F1EFE8" stroke="#5F5E5A" stroke-width="1"/><text x="340.0" y="63.0" font-size="14" text-anchor="middle" fill="#444441" font-weight="600">跟随者 Follower</text><text x="340.0" y="83.0" font-size="12" text-anchor="middle" fill="#5F5E5A">被动响应,重置计时器</text><rect x="250" y="170" width="180" height="56" rx="8" fill="#FAEEDA" stroke="#854F0B" stroke-width="1"/><text x="340.0" y="193.0" font-size="14" text-anchor="middle" fill="#633806" font-weight="600">候选人 Candidate</text><text x="340.0" y="213.0" font-size="12" text-anchor="middle" fill="#854F0B">拉票;分裂则超时重来</text><rect x="250" y="300" width="180" height="56" rx="8" fill="#E1F5EE" stroke="#0F6E56" stroke-width="1"/><text x="340.0" y="323.0" font-size="14" text-anchor="middle" fill="#085041" font-weight="600">领导者 Leader</text><text x="340.0" y="343.0" font-size="12" text-anchor="middle" fill="#0F6E56">发心跳,处理所有写入</text><line x1="300" y1="96" x2="300" y2="166" stroke="#73726c" stroke-width="1.2"  marker-end="url(#aG)"/><text x="40" y="135" font-size="12">选举计时器超时,任期 +1</text><line x1="300" y1="226" x2="300" y2="296" stroke="#73726c" stroke-width="1.2"  marker-end="url(#aG)"/><text x="40" y="265" font-size="12">获得过半数选票</text><line x1="380" y1="166" x2="380" y2="96" stroke="#73726c" stroke-width="1.2"  marker-end="url(#aG)"/><text x="640" y="135" font-size="12" text-anchor="end">收到合法 leader 的心跳</text><path d="M438 328 L560 328 L560 68 L436 68" fill="none" stroke="#73726c" stroke-width="1.2" marker-end="url(#aG)"/><text x="548" y="200" font-size="12" text-anchor="end">发现更高任期</text></svg>