<svg xmlns="http://www.w3.org/2000/svg" width="680" height="330" viewBox="0 0 680 330"><rect x="0" y="0" width="680" height="330" fill="#ffffff"/><defs><marker id="aG" viewBox="0 0 10 10" refX="8" refY="5" markerWidth="6" markerHeight="6" orient="auto-start-reverse"><path d="M2 1L8 5L2 9" fill="none" stroke="#73726c" stroke-width="1.5" stroke-linecap="round" stroke-linejoin="round"/></marker><marker id="aT" viewBox="0 0 10 10" refX="8" refY="5" markerWidth="6" markerHeight="6" orient="auto-start-reverse"><path d="M2 1L8 5L2 9" fill="none" stroke="#1D9E75" stroke-width="1.5" stroke-linecap="round" stroke-linejoin="round"/></marker><marker id="aP" viewBox="0 0 10 10" refX="8" refY="5" markerWidth="6" markerHeight="6" orient="auto-start-reverse"><path d="M2 1L8 5L2 9" fill="none" stroke="#7F77DD" stroke-width="1.5" stroke-linecap="round" stroke-linejoin="round"/></marker></defs><style>text{font-family:"Noto Sans CJK SC","PingFang SC","Microsoft YaHei",sans-serif}.t{font-size:14px;fill:#3d3d3a}.ts{font-size:12px;fill:#73726c}.th{font-size:14px;font-weight:600;fill:#3d3d3a}</style><text x="176" y="74" font-size="12" text-anchor="middle">1</text><text x="234" y="74" font-size="12" text-anchor="middle">2</text><text x="292" y="74" font-size="12" text-anchor="middle">3</text><text x="350" y="74" font-size="12" text-anchor="middle">4</text><text x="408" y="74" font-size="12" text-anchor="middle">5</text><text x="466" y="74" font-size="12" text-anchor="middle">6</text><text x="524" y="74" font-size="12" text-anchor="middle">7</text><text x="582" y="74" font-size="12" text-anchor="middle">8</text><text x="40" y="113" font-size="14" font-weight="600">Leader</text><rect x="150" y="90" width="52" height="36" rx="4" fill="#EEEDFE" stroke="#534AB7" stroke-width="1"/><text x="176" y="112" font-size="12" text-anchor="middle" fill="#534AB7">t1</text><rect x="208" y="90" width="52" height="36" rx="4" fill="#EEEDFE" stroke="#534AB7" stroke-width="1"/><text x="234" y="112" font-size="12" text-anchor="middle" fill="#534AB7">t1</text><rect x="266" y="90" width="52" height="36" rx="4" fill="#EEEDFE" stroke="#534AB7" stroke-width="1"/><text x="292" y="112" font-size="12" text-anchor="middle" fill="#534AB7">t1</text><rect x="324" y="90" width="52" height="36" rx="4" fill="#E1F5EE" stroke="#0F6E56" stroke-width="1"/><text x="350" y="112" font-size="12" text-anchor="middle" fill="#0F6E56">t2</text><rect x="382" y="90" width="52" height="36" rx="4" fill="#E1F5EE" stroke="#0F6E56" stroke-width="1"/><text x="408" y="112" font-size="12" text-anchor="middle" fill="#0F6E56">t2</text><rect x="440" y="90" width="52" height="36" rx="4" fill="#E1F5EE" stroke="#0F6E56" stroke-width="1"/><text x="466" y="112" font-size="12" text-anchor="middle" fill="#0F6E56">t2</text><rect x="498" y="90" width="52" height="36" rx="4" fill="#FAECE7" stroke="#993C1D" stroke-width="1"/><text x="524" y="112" font-size="12" text-anchor="middle" fill="#993C1D">t3</text><rect x="556" y="90" width="52" height="36" rx="4" fill="#FAECE7" stroke="#993C1D" stroke-width="1"/><text x="582" y="112" font-size="12" text-anchor="middle" fill="#993C1D">t3</text><text x="40" y="173" font-size="14" font-weight="600">Follower A</text><rect x="150" y="150" width="52" height="36" rx="4" fill="#EEEDFE" stroke="#534AB7" stroke-width="1"/><text x="176" y="172" font-size="12" text-anchor="middle" fill="#534AB7">t1</text><rect x="208" y="150" width="52" height="36" rx="4" fill="#EEEDFE" stroke="#534AB7" stroke-width="1"/><text x="234" y="172" font-size="12" text-anchor="middle" fill="#534AB7">t1</text><rect x="266" y="150" width="52" height="36" rx="4" fill="#EEEDFE" stroke="#534AB7" stroke-width="1"/><text x="292" y="172" font-size="12" text-anchor="middle" fill="#534AB7">t1</text><rect x="324" y="150" width="52" height="36" rx="4" fill="#E1F5EE" stroke="#0F6E56" stroke-width="1"/><text x="350" y="172" font-size="12" text-anchor="middle" fill="#0F6E56">t2</text><rect x="382" y="150" width="52" height="36" rx="4" fill="#E1F5EE" stroke="#0F6E56" stroke-width="1"/><text x="408" y="172" font-size="12" text-anchor="middle" fill="#0F6E56">t2</text><rect x="440" y="150" width="52" height="36" rx="4" fill="#E1F5EE" stroke="#0F6E56" stroke-width="1"/><text x="466" y="172" font-size="12" text-anchor="middle" fill="#0F6E56">t2</text><text x="40" y="233" font-size="14" font-weight="600">Follower B</text><rect x="150" y="210" width="52" height="36" rx="4" fill="#EEEDFE" stroke="#534AB7" stroke-width="1"/><text x="176" y="232" font-size="12" text-anchor="middle" fill="#534AB7">t1</text><rect x="208" y="210" width="52" height="36" rx="4" fill="#EEEDFE" stroke="#534AB7" stroke-width="1"/><text x="234" y="232" font-size="12" text-anchor="middle" fill="#534AB7">t1</text><rect x="266" y="210" width="52" height="36" rx="4" fill="#EEEDFE" stroke="#534AB7" stroke-width="1"/><text x="292" y="232" font-size="12" text-anchor="middle" fill="#534AB7">t1</text><rect x="324" y="210" width="52" height="36" rx="4" fill="#E1F5EE" stroke="#0F6E56" stroke-width="1"/><text x="350" y="232" font-size="12" text-anchor="middle" fill="#0F6E56">t2</text><rect x="382" y="210" width="52" height="36" rx="4" fill="#E1F5EE" stroke="#0F6E56" stroke-width="1"/><text x="408" y="232" font-size="12" text-anchor="middle" fill="#0F6E56">t2</text><rect x="440" y="210" width="52" height="36" rx="4" fill="none" stroke="#9c9a92" stroke-width="1" stroke-dasharray="4 3"/><rect x="498" y="210" width="52" height="36" rx="4" fill="none" stroke="#9c9a92" stroke-width="1" stroke-dasharray="4 3"/><rect x="556" y="210" width="52" height="36" rx="4" fill="none" stroke="#9c9a92" stroke-width="1" stroke-dasharray="4 3"/><line x1="495" y1="56" x2="495" y2="256" stroke="#73726c" stroke-width="1" stroke-dasharray="5 4"/><text x="495" y="46" font-size="12" text-anchor="middle">commitIndex = 6</text><text x="340" y="290" font-size="12" text-anchor="middle">格子里的 t = 该条目写入时的任期;虚线格 = Follower B 缺失的条目</text><text x="340" y="312" font-size="12" text-anchor="middle">一条日志被过半节点持有后才算提交(第 7、8 条只有 leader 有,未提交)</text></svg>