<svg version="1.1" xmlns="http://www.w3.org/2000/svg" viewBox="0 0 543.6666259765625 502.16668701171875" width="543.6666259765625" height="502.16668701171875">
  <!-- svg-source:excalidraw -->
  
  <defs>
    <style class="style-fonts">
      @font-face {
        font-family: "Virgil";
        src: url("https://excalidraw.com/Virgil.woff2");
      }
      @font-face {
        font-family: "Cascadia";
        src: url("https://excalidraw.com/Cascadia.woff2");
      }
    </style>
  </defs>
  <g stroke-linecap="round" transform="translate(10.3333740234375 106.16668701171875) rotate(0 55 25)"><path d="M3.33 2.89 C3.33 2.89, 3.33 2.89, 3.33 2.89 M3.33 2.89 C3.33 2.89, 3.33 2.89, 3.33 2.89 M1.75 10.8 C4.39 7.82, 8.3 3.35, 10.28 0.99 M1.75 10.8 C5.43 6.45, 8.25 3.8, 10.28 0.99 M1.49 17.2 C6.18 13.71, 9.22 8.56, 14.61 2.1 M1.49 17.2 C7.02 12.66, 9.92 6.52, 14.61 2.1 M1.89 22.84 C7.76 18.6, 10.44 13.67, 20.26 1.71 M1.89 22.84 C6.97 17.23, 11.98 12.07, 20.26 1.71 M1.63 29.24 C6.23 20.37, 16.03 12.61, 25.24 2.07 M1.63 29.24 C9.7 21.22, 16.46 13.28, 25.24 2.07 M1.36 35.64 C13.34 21.17, 23.46 8.74, 30.89 1.67 M1.36 35.64 C11.09 24.35, 21.54 13.23, 30.89 1.67 M1.76 41.28 C8.74 31.3, 15.2 22.41, 35.87 2.03 M1.76 41.28 C13.48 27.98, 24.55 13.93, 35.87 2.03 M2.81 46.17 C10.82 34.29, 22.54 21, 41.52 1.64 M2.81 46.17 C16.85 29.5, 31.29 14.06, 41.52 1.64 M5.83 48.79 C19.48 35.37, 29.14 18.2, 46.5 2 M5.83 48.79 C21.28 30.86, 34.67 14.73, 46.5 2 M10.16 49.91 C17.14 38.62, 25.36 30.09, 52.15 1.61 M10.16 49.91 C23 34.93, 36.2 20.93, 52.15 1.61 M13.83 51.78 C27.27 36.96, 41.53 19.58, 57.13 1.97 M13.83 51.78 C23.97 39.84, 33.59 28.25, 57.13 1.97 M19.48 51.38 C35.94 36.47, 47.07 18.69, 62.12 2.33 M19.48 51.38 C28.73 40.58, 39.05 29.05, 62.12 2.33 M24.46 51.74 C34.59 39.18, 46.16 27.76, 67.76 1.93 M24.46 51.74 C40.08 33.59, 56.06 15.81, 67.76 1.93 M30.11 51.35 C46.58 36.73, 57.8 15.91, 72.75 2.29 M30.11 51.35 C45.58 34.09, 59.31 18.07, 72.75 2.29 M35.09 51.71 C51.3 34.79, 64.81 18.5, 78.39 1.9 M35.09 51.71 C46.22 37.19, 58.46 22.99, 78.39 1.9 M40.74 51.31 C50.58 39.44, 60.53 25.13, 83.38 2.26 M40.74 51.31 C51.64 39.07, 60.34 28.56, 83.38 2.26 M45.72 51.67 C56.35 37.83, 71.68 25.84, 89.02 1.86 M45.72 51.67 C58.66 38.76, 70.12 24.46, 89.02 1.86 M51.37 51.28 C61.46 40.63, 72.79 30.17, 94.01 2.22 M51.37 51.28 C61.53 40.75, 69.55 30.44, 94.01 2.22 M56.35 51.64 C68.95 37.97, 81.31 23.69, 99.65 1.83 M56.35 51.64 C66.69 41.64, 75.63 30.86, 99.65 1.83 M62 51.24 C73.41 40.37, 82.21 27.06, 103.99 2.94 M62 51.24 C77.53 33.99, 92.85 18.14, 103.99 2.94 M66.98 51.6 C80.31 36.15, 93.08 22.11, 108.32 4.06 M66.98 51.6 C77.81 39.74, 88.17 28.82, 108.32 4.06 M72.63 51.21 C84.38 34.11, 97.79 20.73, 110.68 7.44 M72.63 51.21 C82.17 40.7, 90.84 31.59, 110.68 7.44 M77.61 51.57 C86.82 40.54, 97.62 28.64, 112.39 11.57 M77.61 51.57 C87.5 40.38, 99.18 27.87, 112.39 11.57 M83.26 51.17 C89.54 42.31, 96.93 32.52, 112.12 17.97 M83.26 51.17 C95.4 38.78, 105.22 25.42, 112.12 17.97 M88.24 51.53 C95.22 43.34, 102.95 34.66, 112.52 23.61 M88.24 51.53 C94.59 45.5, 99.73 37.87, 112.52 23.61 M93.89 51.14 C99.13 43.77, 108.86 36.96, 112.26 30.01 M93.89 51.14 C99.09 44.89, 104.75 37.38, 112.26 30.01 M98.87 51.5 C101.17 49.41, 104.13 46.96, 110.68 37.92 M98.87 51.5 C102.66 46.94, 106.63 43.75, 110.68 37.92" stroke="#ffec99" stroke-width="0.5" fill="none"></path><path d="M12.5 0 M12.5 0 C30.95 -1.81, 46.66 -1.22, 97.5 0 M12.5 0 C34.64 -0.14, 57.73 0.13, 97.5 0 M97.5 0 C107.59 0.95, 109.99 4.92, 110 12.5 M97.5 0 C106.64 0.7, 110.77 6, 110 12.5 M110 12.5 C111.68 17.79, 110.21 24.17, 110 37.5 M110 12.5 C109.39 18.17, 111.09 26.23, 110 37.5 M110 37.5 C108.77 45.15, 106.03 49.27, 97.5 50 M110 37.5 C108.41 46.06, 107.81 51.94, 97.5 50 M97.5 50 C78.74 50.14, 60.85 49.84, 12.5 50 M97.5 50 C75.57 48.79, 53 48.78, 12.5 50 M12.5 50 C4.38 48.98, 0.2 47.19, 0 37.5 M12.5 50 C2.26 47.86, 1.11 45.42, 0 37.5 M0 37.5 C-0.15 32.12, -0.18 24.3, 0 12.5 M0 37.5 C1.15 30.09, 1.1 23.44, 0 12.5 M0 12.5 C-1.29 5.53, 4.01 -0.39, 12.5 0 M0 12.5 C0.19 5.24, 4.63 -1.59, 12.5 0" stroke="#1e1e1e" stroke-width="1" fill="none"></path></g><g transform="translate(26.92340850830078 118.66668701171875) rotate(0 38.40996551513672 12.5)"><text x="38.40996551513672" y="0" font-family="Virgil, Segoe UI Emoji" font-size="20px" fill="#1e1e1e" text-anchor="middle" style="white-space: pre;" direction="ltr" dominant-baseline="text-before-edge">phase_1</text></g><g stroke-linecap="round" transform="translate(10.333343505859375 217.16668701171875) rotate(0 55 25)"><path d="M3.33 2.89 C3.33 2.89, 3.33 2.89, 3.33 2.89 M3.33 2.89 C3.33 2.89, 3.33 2.89, 3.33 2.89 M1.75 10.8 C4.75 8.23, 6.04 5.39, 10.28 0.99 M1.75 10.8 C5.4 6.66, 7.61 3, 10.28 0.99 M1.49 17.2 C6.3 10.94, 10.45 5.97, 14.61 2.1 M1.49 17.2 C7.26 11.25, 11.17 4.72, 14.61 2.1 M1.89 22.84 C7.09 14.4, 12.47 9.95, 20.26 1.71 M1.89 22.84 C9.38 14.22, 15.31 6.9, 20.26 1.71 M1.63 29.24 C8.77 19.82, 18.47 7.74, 25.24 2.07 M1.63 29.24 C10.68 19.73, 17.33 10.44, 25.24 2.07 M1.36 35.64 C10.6 23.81, 20.66 14.58, 30.89 1.67 M1.36 35.64 C13.15 23.48, 23.62 9.91, 30.89 1.67 M1.76 41.28 C10.2 31.7, 16.25 22.98, 35.87 2.03 M1.76 41.28 C15.1 25.72, 28.14 9.74, 35.87 2.03 M2.81 46.17 C12.36 35.33, 21.3 23.37, 41.52 1.64 M2.81 46.17 C11.49 35.78, 20.14 25.51, 41.52 1.64 M5.83 48.79 C14.38 39.58, 25.36 28.23, 46.5 2 M5.83 48.79 C21.89 30.35, 38.1 11.7, 46.5 2 M10.16 49.91 C21.99 36.02, 33.72 23.93, 52.15 1.61 M10.16 49.91 C24.62 33.66, 39.85 15.79, 52.15 1.61 M13.83 51.78 C25.07 39.88, 34.56 26.83, 57.13 1.97 M13.83 51.78 C23.37 39.8, 33.14 28.5, 57.13 1.97 M19.48 51.38 C32.68 37.25, 41.68 24.42, 62.12 2.33 M19.48 51.38 C33.98 33.91, 46.96 19.57, 62.12 2.33 M24.46 51.74 C38.87 34.46, 52.85 18.42, 67.76 1.93 M24.46 51.74 C36.88 38.32, 49.43 23.38, 67.76 1.93 M30.11 51.35 C45.01 36.25, 57.11 17.33, 72.75 2.29 M30.11 51.35 C42.02 37.73, 53.63 23.95, 72.75 2.29 M35.09 51.71 C46.15 43.62, 51.84 31.12, 78.39 1.9 M35.09 51.71 C48.79 37.44, 62.95 20.2, 78.39 1.9 M40.74 51.31 C51 38.98, 60.25 28.78, 83.38 2.26 M40.74 51.31 C53.28 35.52, 66.37 21.3, 83.38 2.26 M45.72 51.67 C54.8 37.12, 68.2 26.21, 89.02 1.86 M45.72 51.67 C55.54 40.52, 65.43 28.07, 89.02 1.86 M51.37 51.28 C65.39 36.86, 76.99 23.81, 94.01 2.22 M51.37 51.28 C60.87 39.85, 71.57 28.42, 94.01 2.22 M56.35 51.64 C64.64 42.25, 78.14 27.21, 99.65 1.83 M56.35 51.64 C68.72 35.53, 83.22 20.95, 99.65 1.83 M62 51.24 C78.53 31.91, 93.22 16.81, 103.99 2.94 M62 51.24 C73.51 38.92, 84.28 24.43, 103.99 2.94 M66.98 51.6 C76.25 40.56, 89 27.29, 108.32 4.06 M66.98 51.6 C81.67 34.28, 98.43 15.62, 108.32 4.06 M72.63 51.21 C85.27 37.52, 96.3 20.84, 110.68 7.44 M72.63 51.21 C87.36 36.53, 99.63 19.12, 110.68 7.44 M77.61 51.57 C89.09 36.07, 103.59 22.1, 112.39 11.57 M77.61 51.57 C86.54 43.19, 93.22 34.34, 112.39 11.57 M83.26 51.17 C92.21 39.2, 100.27 32.03, 112.12 17.97 M83.26 51.17 C89.33 42.97, 95.55 35.9, 112.12 17.97 M88.24 51.53 C94.82 42.79, 104.77 34.59, 112.52 23.61 M88.24 51.53 C97.2 41.95, 106.15 31.65, 112.52 23.61 M93.89 51.14 C97.61 45.28, 103.31 41.96, 112.26 30.01 M93.89 51.14 C99.77 44.99, 106.91 37.04, 112.26 30.01 M98.87 51.5 C101.73 46.47, 106.07 43.15, 110.68 37.92 M98.87 51.5 C102.1 46.81, 106.75 43.41, 110.68 37.92" stroke="#ffec99" stroke-width="0.5" fill="none"></path><path d="M12.5 0 M12.5 0 C43.72 -1.2, 73.44 -1.9, 97.5 0 M12.5 0 C37.8 -0.06, 63.84 0.56, 97.5 0 M97.5 0 C106.08 0.75, 111.31 2.5, 110 12.5 M97.5 0 C107.9 0.24, 111.84 5.09, 110 12.5 M110 12.5 C108.25 21.22, 109.73 31, 110 37.5 M110 12.5 C110.57 21.18, 109.38 29.18, 110 37.5 M110 37.5 C110.87 44.46, 107.44 48.21, 97.5 50 M110 37.5 C108.8 47.54, 104.47 51.75, 97.5 50 M97.5 50 C67.88 48.81, 38.83 48.69, 12.5 50 M97.5 50 C78 48.83, 60.54 48.99, 12.5 50 M12.5 50 C5.83 49.04, -0.24 45.78, 0 37.5 M12.5 50 C2.65 49.81, -1.7 43.72, 0 37.5 M0 37.5 C-1.19 26.21, 0.52 19.27, 0 12.5 M0 37.5 C0.08 31.85, 0.36 25.2, 0 12.5 M0 12.5 C-0.83 3.1, 3.17 1.46, 12.5 0 M0 12.5 C1.84 3.46, 5.92 -1.92, 12.5 0" stroke="#1e1e1e" stroke-width="1" fill="none"></path></g><g transform="translate(22.513381958007812 229.66668701171875) rotate(0 42.81996154785156 12.5)"><text x="42.81996154785156" y="0" font-family="Virgil, Segoe UI Emoji" font-size="20px" fill="#1e1e1e" text-anchor="middle" style="white-space: pre;" direction="ltr" dominant-baseline="text-before-edge">phase_2</text></g><g stroke-linecap="round" transform="translate(415.66668701171875 25.5) rotate(0 50.666656494140625 69.66667175292969)"><path d="M6.09 6.62 C6.09 6.62, 6.09 6.62, 6.09 6.62 M6.09 6.62 C6.09 6.62, 6.09 6.62, 6.09 6.62 M6.48 12.26 C8.65 9.43, 13.12 6.94, 15.01 2.45 M6.48 12.26 C9.18 8.97, 12.6 5.88, 15.01 2.45 M3.6 21.68 C8.55 14.11, 16.56 7.2, 21.31 1.3 M3.6 21.68 C9.78 13.74, 17.6 5.15, 21.31 1.3 M3.33 28.07 C11.42 19.98, 19.86 10.88, 26.95 0.9 M3.33 28.07 C12.52 17.2, 20.09 6.62, 26.95 0.9 M3.07 34.47 C8.29 26.21, 16.28 19.35, 31.94 1.26 M3.07 34.47 C14.21 20.45, 25.44 8.4, 31.94 1.26 M3.47 40.11 C12.27 28.44, 20.61 20.16, 36.93 1.62 M3.47 40.11 C14.97 26.63, 25.09 14.34, 36.93 1.62 M3.21 46.51 C12.38 37.49, 23.34 26.93, 42.57 1.23 M3.21 46.51 C13.76 34.52, 23.97 22.47, 42.57 1.23 M2.94 52.91 C16.16 38.92, 28.16 26.79, 47.56 1.59 M2.94 52.91 C15.34 38.68, 26.01 25.42, 47.56 1.59 M3.34 58.55 C22.89 35.01, 41.21 13.94, 53.2 1.2 M3.34 58.55 C13.3 46.48, 23.95 35.66, 53.2 1.2 M3.08 64.95 C17.85 46.37, 37.05 24.8, 58.19 1.56 M3.08 64.95 C23.7 41.46, 46.64 15.15, 58.19 1.56 M2.82 71.35 C16.4 54.9, 31.62 37.94, 63.83 1.16 M2.82 71.35 C25.13 45.57, 46.98 20.69, 63.83 1.16 M3.21 76.99 C23 50.79, 46.03 28.38, 68.82 1.52 M3.21 76.99 C21.78 55.38, 40.34 32.03, 68.82 1.52 M2.95 83.39 C16.76 63.92, 33.98 45.7, 73.8 1.88 M2.95 83.39 C20.08 63.01, 34.85 44.68, 73.8 1.88 M3.34 89.03 C21.42 67.99, 39.43 47.07, 79.45 1.49 M3.34 89.03 C25.66 63.91, 48.37 38.11, 79.45 1.49 M3.08 95.43 C34.49 61.68, 61.78 27.97, 83.78 2.6 M3.08 95.43 C25.85 68.2, 48.48 41.94, 83.78 2.6 M2.82 101.83 C26.33 75.55, 45.98 51.46, 88.11 3.72 M2.82 101.83 C28.39 73.3, 52.15 44.8, 88.11 3.72 M3.22 107.47 C26.59 81.22, 45.45 60.71, 92.44 4.83 M3.22 107.47 C33.87 74.28, 63.66 39.5, 92.44 4.83 M1.64 115.38 C38.38 74.73, 74.99 28.91, 95.46 7.46 M1.64 115.38 C31.99 78.43, 62.99 43.51, 95.46 7.46 M2.69 120.27 C34.94 84.45, 65.47 51.98, 98.48 10.08 M2.69 120.27 C37.41 81.04, 70.66 43.12, 98.48 10.08 M3.74 125.16 C36.44 84.29, 72.54 46.11, 99.53 14.97 M3.74 125.16 C21.93 100.87, 42.96 78.81, 99.53 14.97 M4.79 130.04 C32.82 99.33, 55.19 69.56, 100.58 19.86 M4.79 130.04 C29.63 100.2, 55.67 69.31, 100.58 19.86 M7.16 133.42 C25.39 113.38, 45.22 88.49, 101.63 24.74 M7.16 133.42 C33.65 103.05, 61.57 72.29, 101.63 24.74 M10.18 136.05 C38.57 106.05, 65.12 73.62, 103.99 28.12 M10.18 136.05 C45.49 95.5, 80.52 53.12, 103.99 28.12 M14.51 137.16 C48.35 100.64, 82.01 61.99, 104.39 33.77 M14.51 137.16 C40.17 107.99, 63.61 79.78, 104.39 33.77 M18.18 139.03 C43.94 110.17, 68.48 84.36, 104.13 40.16 M18.18 139.03 C45.85 109.33, 73 77.8, 104.13 40.16 M21.86 140.9 C52.68 102.41, 87.22 67.31, 104.52 45.81 M21.86 140.9 C43.03 117.9, 62.91 94.62, 104.52 45.81 M26.84 141.26 C56.09 109.62, 84.97 77.02, 104.26 52.21 M26.84 141.26 C46.98 117.4, 68.37 93.42, 104.26 52.21 M32.49 140.87 C60.14 107.26, 87.05 78.13, 104 58.6 M32.49 140.87 C47.85 123.22, 64.32 104.21, 104 58.6 M37.47 141.23 C59.01 114.09, 80.95 88.13, 104.39 64.25 M37.47 141.23 C51 124.42, 66.78 107.74, 104.39 64.25 M43.12 140.83 C66.77 112.7, 90.03 85.66, 104.13 70.64 M43.12 140.83 C55.06 125.16, 67.14 111.4, 104.13 70.64 M48.1 141.19 C68.3 117.72, 90.21 94.62, 104.53 76.29 M48.1 141.19 C62.35 125.57, 78.13 107.88, 104.53 76.29 M53.09 141.55 C71.43 121.09, 93.05 97.35, 104.26 82.68 M53.09 141.55 C69.08 122.72, 86.09 104.26, 104.26 82.68 M58.73 141.16 C74.12 124.04, 93.62 105.27, 104 89.08 M58.73 141.16 C69.38 128.5, 81.61 114.51, 104 89.08 M63.72 141.52 C74.37 127.83, 88.13 112.31, 104.4 94.73 M63.72 141.52 C72.93 129.93, 84.44 117.64, 104.4 94.73 M69.36 141.12 C84.18 123.95, 95.18 109.19, 104.14 101.12 M69.36 141.12 C77.15 131.45, 86.74 121.57, 104.14 101.12 M76.32 139.22 C83.65 130.43, 86.7 123.02, 104.53 106.77 M76.32 139.22 C84.12 130.29, 91.34 121.99, 104.53 106.77 M82.62 138.07 C86.85 134.13, 89.36 128.97, 102.3 115.43 M82.62 138.07 C90.2 129.34, 97.04 121.05, 102.3 115.43 M89.57 136.17 C92.96 133.11, 96.2 126.81, 101.38 122.58 M89.57 136.17 C93.76 131.39, 99.14 126.58, 101.38 122.58" stroke="#b2f2bb" stroke-width="0.5" fill="none"></path><path d="M25.33 0 M25.33 0 C36.59 2.07, 44.62 2.02, 76 0 M25.33 0 C36.03 -0.88, 48.21 -0.78, 76 0 M76 0 C92.52 1.93, 103.27 7.62, 101.33 25.33 M76 0 C93.44 2.03, 100.4 9.12, 101.33 25.33 M101.33 25.33 C103.53 60.33, 100.61 94.31, 101.33 114 M101.33 25.33 C102.59 56.89, 102.23 86.11, 101.33 114 M101.33 114 C103.09 131.98, 94.26 137.98, 76 139.33 M101.33 114 C101.08 132.15, 92.73 140.46, 76 139.33 M76 139.33 C56.69 137.84, 38.56 137.02, 25.33 139.33 M76 139.33 C59.6 138.96, 44.39 139.96, 25.33 139.33 M25.33 139.33 C9.49 139.1, 1.46 130.56, 0 114 M25.33 139.33 C9.82 140.39, -1.85 132.54, 0 114 M0 114 C0.22 83.68, -0.58 57.09, 0 25.33 M0 114 C-0.02 89.21, 1.23 64.93, 0 25.33 M0 25.33 C-1.34 8.26, 7.46 0.08, 25.33 0 M0 25.33 C-0.02 8.75, 7.47 -0.63, 25.33 0" stroke="#1e1e1e" stroke-width="1" fill="none"></path></g><g transform="translate(426.2933807373047 82.66667175292969) rotate(0 40.03996276855469 12.5)"><text x="40.03996276855469" y="0" font-family="Virgil, Segoe UI Emoji" font-size="20px" fill="#1e1e1e" text-anchor="middle" style="white-space: pre;" direction="ltr" dominant-baseline="text-before-edge">plugin_a</text></g><g stroke-linecap="round" transform="translate(423.66668701171875 182.83334350585938) rotate(0 53.333343505859375 75)"><path d="M4.01 10.11 C4.01 10.11, 4.01 10.11, 4.01 10.11 M4.01 10.11 C4.01 10.11, 4.01 10.11, 4.01 10.11 M0.47 20.29 C4.2 16.17, 7.27 12.82, 12.94 5.95 M0.47 20.29 C4.69 16.8, 7.75 12.22, 12.94 5.95 M3.49 22.91 C9.05 14.99, 13.75 11.62, 19.89 4.04 M3.49 22.91 C8.88 16.8, 13.22 11.64, 19.89 4.04 M3.23 29.31 C11.16 20.38, 18.62 11.4, 27.5 1.38 M3.23 29.31 C12.85 18.77, 20.87 9.63, 27.5 1.38 M3.62 34.95 C14.47 24.87, 25.83 11.19, 33.15 0.99 M3.62 34.95 C13.16 23.93, 21.38 13.72, 33.15 0.99 M3.36 41.35 C13.12 31.57, 22.31 21.22, 38.13 1.35 M3.36 41.35 C10.01 33.58, 18.29 23.14, 38.13 1.35 M3.1 47.75 C10.05 36.66, 19.06 27.48, 43.78 0.95 M3.1 47.75 C12.97 36.9, 23.25 25.67, 43.78 0.95 M3.5 53.39 C19.92 35.74, 35.61 18.65, 48.76 1.31 M3.5 53.39 C14.47 41.98, 23.63 31.06, 48.76 1.31 M3.23 59.79 C14.53 43.58, 31.11 31.66, 54.41 0.92 M3.23 59.79 C15.29 44.99, 27.97 32.49, 54.41 0.92 M2.97 66.18 C24.39 40.43, 47.44 15.12, 59.39 1.28 M2.97 66.18 C20.29 45.92, 37.52 25.06, 59.39 1.28 M3.37 71.83 C16.9 58.07, 28.46 39.42, 64.38 1.64 M3.37 71.83 C24.77 47.65, 45.9 23.57, 64.38 1.64 M3.11 78.23 C21.44 55.29, 44.61 32.47, 70.02 1.24 M3.11 78.23 C29.92 48.8, 54.93 19.18, 70.02 1.24 M2.84 84.62 C28.41 54.96, 51.18 29.38, 75.01 1.61 M2.84 84.62 C33.01 51.85, 60.29 17.97, 75.01 1.61 M3.24 90.27 C28.53 61.08, 56.94 27.47, 80.65 1.21 M3.24 90.27 C24.93 64.21, 48.62 38.12, 80.65 1.21 M2.98 96.66 C22.98 74.88, 41.72 52.9, 86.3 0.82 M2.98 96.66 C34.76 61.31, 63.92 26.49, 86.3 0.82 M3.37 102.31 C36.3 67.08, 66.39 30.82, 90.63 1.93 M3.37 102.31 C25.94 75.35, 49.18 51.66, 90.63 1.93 M3.11 108.7 C24.64 83.86, 44.64 58.94, 94.96 3.05 M3.11 108.7 C39.24 67.63, 77.2 26.68, 94.96 3.05 M2.85 115.1 C29.41 80.11, 59.44 47.3, 97.98 5.67 M2.85 115.1 C22.22 91.9, 42.53 67.67, 97.98 5.67 M0.62 123.76 C20.91 99.98, 40.31 76.95, 101 8.29 M0.62 123.76 C36.45 81.45, 73.81 39.23, 101 8.29 M1.67 128.65 C27.15 98.12, 55.99 63.78, 104.02 10.92 M1.67 128.65 C32.8 91.83, 63.72 56.67, 104.02 10.92 M2.72 133.54 C43.02 87.32, 82.79 39.89, 105.07 15.81 M2.72 133.54 C38.74 93.6, 71.9 53.44, 105.07 15.81 M3.77 138.43 C37.03 100.51, 70.51 59.12, 106.12 20.69 M3.77 138.43 C25.93 113.96, 46.06 90.02, 106.12 20.69 M6.13 141.81 C44.09 100.04, 79 57.58, 107.17 25.58 M6.13 141.81 C37.35 105.05, 68.76 68.38, 107.17 25.58 M9.15 144.43 C36.47 115.78, 63.88 84.26, 109.53 28.96 M9.15 144.43 C44.38 104.78, 78.57 65.66, 109.53 28.96 M11.52 147.81 C36.44 121.22, 58.76 92.76, 109.27 35.36 M11.52 147.81 C35.56 120.14, 60.55 92.52, 109.27 35.36 M15.85 148.93 C35.42 127.7, 54.83 103.13, 109.66 41 M15.85 148.93 C43.7 116.01, 73.23 85.78, 109.66 41 M20.83 149.29 C47.51 121.99, 70.95 90.39, 109.4 47.4 M20.83 149.29 C44.24 121.99, 66.73 95.29, 109.4 47.4 M25.82 149.65 C45.34 126.54, 65.11 101.6, 109.14 53.8 M25.82 149.65 C44.21 127.41, 63.51 105.06, 109.14 53.8 M30.81 150.01 C53.9 124.41, 75.04 95.39, 109.53 59.44 M30.81 150.01 C49 128.04, 66.37 106.74, 109.53 59.44 M36.45 149.61 C50.49 132.15, 67.25 116.46, 109.27 65.84 M36.45 149.61 C52.85 129.22, 71.01 110.16, 109.27 65.84 M41.44 149.97 C55.14 135.39, 68.94 119.68, 109.67 71.48 M41.44 149.97 C67.53 119.54, 94.32 90.92, 109.67 71.48 M47.08 149.58 C62.37 128.96, 80.71 113.18, 109.41 77.88 M47.08 149.58 C70 122.95, 94.41 96.59, 109.41 77.88 M52.07 149.94 C71.14 127.39, 89.06 107.29, 109.14 84.28 M52.07 149.94 C69.38 131.3, 86.46 111.27, 109.14 84.28 M57.71 149.54 C74.38 132.91, 90.55 112.2, 109.54 89.92 M57.71 149.54 C70.69 135.38, 83.62 118.37, 109.54 89.92 M62.7 149.9 C76.21 133.25, 87.48 119.75, 109.28 96.32 M62.7 149.9 C78.79 131.56, 92.86 115.09, 109.28 96.32 M67.68 150.26 C75.97 139.98, 87.31 132.24, 109.67 101.96 M67.68 150.26 C78.03 137.68, 90.26 125.12, 109.67 101.96 M73.33 149.87 C80.4 139.06, 90.67 132.01, 109.41 108.36 M73.33 149.87 C87.02 133.41, 101.39 118.5, 109.41 108.36 M78.31 150.23 C91.02 137.05, 102.28 125.32, 109.15 114.76 M78.31 150.23 C87.4 139.22, 96.31 129.1, 109.15 114.76 M81.99 152.1 C90.43 143.64, 100.74 134.14, 106.92 123.42 M81.99 152.1 C89.57 144.33, 95.35 136.32, 106.92 123.42 M88.95 150.19 C94.65 142.69, 99.47 138.83, 106 130.57 M88.95 150.19 C93.09 144.32, 98.97 138.82, 106 130.57" stroke="#b2f2bb" stroke-width="0.5" fill="none"></path><path d="M26.67 0 M26.67 0 C39.16 0.24, 51.76 -0.58, 80 0 M26.67 0 C41.05 -0.41, 55.82 -0.21, 80 0 M80 0 C99.32 -1.97, 105.52 10.01, 106.67 26.67 M80 0 C98.38 0.67, 105.12 6.74, 106.67 26.67 M106.67 26.67 C106.15 51.64, 108.38 78.66, 106.67 123.33 M106.67 26.67 C106.34 46.51, 107.4 66.11, 106.67 123.33 M106.67 123.33 C104.83 141.63, 96.18 148.01, 80 150 M106.67 123.33 C108.52 141.53, 98.79 151.1, 80 150 M80 150 C64.05 149.44, 48.25 151.13, 26.67 150 M80 150 C60.58 148.61, 40.69 150.09, 26.67 150 M26.67 150 C8.13 149.14, 0.59 142.5, 0 123.33 M26.67 150 C8.32 149.87, -1.95 140.41, 0 123.33 M0 123.33 C-1.17 98.56, -0.95 79.53, 0 26.67 M0 123.33 C0.16 90.54, -0.66 58.4, 0 26.67 M0 26.67 C1.49 10.07, 8.67 0.52, 26.67 0 M0 26.67 C1.13 8.44, 9.91 -1.87, 26.67 0" stroke="#1e1e1e" stroke-width="1" fill="none"></path></g><g transform="translate(438.5500717163086 245.33334350585938) rotate(0 38.44995880126953 12.5)"><text x="38.44995880126953" y="0" font-family="Virgil, Segoe UI Emoji" font-size="20px" fill="#1e1e1e" text-anchor="middle" style="white-space: pre;" direction="ltr" dominant-baseline="text-before-edge">plugin_b</text></g><g stroke-linecap="round" transform="translate(429 346.83331298828125) rotate(0 52.33331298828125 72.66668701171875)"><path d="M3.88 9.99 C3.88 9.99, 3.88 9.99, 3.88 9.99 M3.88 9.99 C3.88 9.99, 3.88 9.99, 3.88 9.99 M0.33 20.17 C4.77 14.93, 8.9 10.59, 12.8 5.83 M0.33 20.17 C3.22 15.7, 8.6 11.33, 12.8 5.83 M0.73 25.81 C9.27 17.6, 14.62 9.75, 19.1 4.68 M0.73 25.81 C7.41 17.92, 12.66 12.2, 19.1 4.68 M0.47 32.21 C12.95 20.5, 20.8 6.46, 27.37 1.26 M0.47 32.21 C9.1 22.36, 19.25 10.22, 27.37 1.26 M0.21 38.6 C8.29 28.02, 19.24 17.75, 33.01 0.87 M0.21 38.6 C8.05 30.06, 15.34 21.47, 33.01 0.87 M0.6 44.25 C16.29 29.16, 27.15 14.13, 38 1.23 M0.6 44.25 C14.84 29.23, 27.65 13.67, 38 1.23 M0.34 50.65 C10.93 36.06, 23.94 27.18, 42.98 1.59 M0.34 50.65 C10.34 39.09, 19.6 27.48, 42.98 1.59 M0.08 57.04 C17.83 34.89, 40.64 14.09, 48.63 1.2 M0.08 57.04 C13.66 39.2, 28.97 22.46, 48.63 1.2 M0.47 62.69 C10.85 49.49, 21.76 35.22, 53.61 1.56 M0.47 62.69 C11.22 50.1, 21.52 37.9, 53.61 1.56 M0.21 69.08 C20.23 45.27, 42.95 20.66, 59.26 1.16 M0.21 69.08 C15.03 51.36, 31.63 31.7, 59.26 1.16 M-0.05 75.48 C20.14 51.99, 38.78 31.38, 64.24 1.52 M-0.05 75.48 C25.27 46.48, 50.31 16.83, 64.24 1.52 M0.34 81.13 C25.95 54.14, 46.6 26.34, 69.89 1.13 M0.34 81.13 C22.89 55.02, 45.73 27.3, 69.89 1.13 M0.08 87.52 C17.14 68.98, 30.96 51.51, 74.87 1.49 M0.08 87.52 C28 56.29, 54.43 24.74, 74.87 1.49 M-0.18 93.92 C25.48 64.49, 50.42 34.73, 79.86 1.85 M-0.18 93.92 C21.41 70.57, 43.01 45.73, 79.86 1.85 M0.22 99.56 C30.65 65.08, 60.12 31.6, 85.5 1.45 M0.22 99.56 C21.4 76.1, 41.58 51.48, 85.5 1.45 M-0.05 105.96 C21.32 79.64, 45.34 54.26, 89.83 2.57 M-0.05 105.96 C19.02 84.86, 37.75 62.19, 89.83 2.57 M0.35 111.6 C27.47 77.77, 58.64 49.39, 94.17 3.68 M0.35 111.6 C28.19 81.97, 54.13 49.8, 94.17 3.68 M0.09 118 C25.95 87.69, 50.02 58.33, 97.18 6.31 M0.09 118 C23.24 90.06, 46.99 61.64, 97.18 6.31 M2.45 121.38 C24.12 95.44, 46.91 68.95, 100.2 8.93 M2.45 121.38 C31.1 88.69, 58.62 54.67, 100.2 8.93 M3.5 126.27 C27.05 98.11, 48.52 70.8, 103.22 11.55 M3.5 126.27 C23.63 102.43, 45.26 79.34, 103.22 11.55 M4.55 131.16 C26.64 102.94, 52.13 77.31, 104.27 16.44 M4.55 131.16 C24.47 108.32, 44.77 85.06, 104.27 16.44 M4.95 136.8 C42.98 91.69, 82.78 50.32, 105.32 21.33 M4.95 136.8 C30.29 105.43, 57.21 77.12, 105.32 21.33 M7.97 139.43 C43.48 97.53, 82.23 56.39, 105.72 26.97 M7.97 139.43 C39.67 102.9, 70.72 67.43, 105.72 26.97 M10.98 142.05 C39.72 111.49, 67.9 78.29, 105.46 33.37 M10.98 142.05 C40.09 110.21, 69.03 75.87, 105.46 33.37 M14.66 143.92 C37.54 119.18, 60.18 88.86, 105.85 39.01 M14.66 143.92 C39.54 114.02, 63.49 86.2, 105.85 39.01 M18.99 145.03 C49.03 110.83, 74.96 80.44, 105.59 45.41 M18.99 145.03 C37.12 124.41, 56.45 104.82, 105.59 45.41 M22.66 146.9 C43.19 121.94, 67.49 97.02, 105.98 51.06 M22.66 146.9 C40.71 123.97, 61.09 102.91, 105.98 51.06 M27.65 147.26 C57.25 111.7, 88.23 79.31, 105.72 57.45 M27.65 147.26 C57.59 114.17, 86.32 81.74, 105.72 57.45 M33.3 146.87 C54.74 121.26, 75.74 97.36, 105.46 63.85 M33.3 146.87 C57.85 119.99, 82.88 92.38, 105.46 63.85 M38.28 147.23 C58.4 125.85, 75.07 103.96, 105.86 69.49 M38.28 147.23 C60.7 121.4, 82.55 97.11, 105.86 69.49 M43.27 147.59 C59.45 127.26, 78.89 107.44, 105.59 75.89 M43.27 147.59 C57.89 131.2, 72.49 114.09, 105.59 75.89 M48.91 147.19 C64.05 128.58, 80.08 111.1, 105.99 81.53 M48.91 147.19 C71.65 123.01, 92.91 97.31, 105.99 81.53 M53.9 147.55 C65.47 135.16, 74.92 125.08, 105.73 87.93 M53.9 147.55 C71.72 125.84, 90.13 106.45, 105.73 87.93 M59.54 147.16 C72.21 129.2, 89.2 115.7, 105.47 94.33 M59.54 147.16 C75.24 128.78, 90.85 110.62, 105.47 94.33 M64.53 147.52 C78.34 131.25, 88.79 116.71, 105.86 99.97 M64.53 147.52 C72.77 137.7, 82.82 126.89, 105.86 99.97 M70.17 147.13 C79.68 134.33, 91.58 121.63, 105.6 106.37 M70.17 147.13 C78.08 139.28, 84.63 131.1, 105.6 106.37 M75.16 147.49 C85.92 137.7, 93.54 126.31, 105.34 112.77 M75.16 147.49 C84.95 134.97, 95.49 122.68, 105.34 112.77 M80.8 147.09 C89.99 137.91, 97.46 128.7, 105.08 119.17 M80.8 147.09 C87.89 139.07, 94.3 130.85, 105.08 119.17 M87.1 145.94 C91.83 137.59, 99.28 130.76, 104.16 126.32 M87.1 145.94 C94.42 139.18, 100.7 130.87, 104.16 126.32" stroke="#b2f2bb" stroke-width="0.5" fill="none"></path><path d="M26.17 0 M26.17 0 C39.76 2.04, 54.14 -0.07, 78.5 0 M26.17 0 C38.8 -0.42, 48.93 -0.3, 78.5 0 M78.5 0 C94.9 -1.31, 106.64 8.12, 104.67 26.17 M78.5 0 C94.95 1.97, 103.7 8.74, 104.67 26.17 M104.67 26.17 C106.47 61.51, 103.64 99.61, 104.67 119.17 M104.67 26.17 C105.15 57.61, 105.86 88.35, 104.67 119.17 M104.67 119.17 C105.78 136.04, 96.42 146.53, 78.5 145.33 M104.67 119.17 C102.93 138.07, 95.12 145.34, 78.5 145.33 M78.5 145.33 C60.72 143.97, 38.33 144.27, 26.17 145.33 M78.5 145.33 C66.17 145.03, 51.7 145.21, 26.17 145.33 M26.17 145.33 C8.78 145.46, 0.47 135.77, 0 119.17 M26.17 145.33 C8.92 145.54, -1.8 138.68, 0 119.17 M0 119.17 C-0.89 91.48, -2.38 59.96, 0 26.17 M0 119.17 C-0.11 98.23, 1.27 78.84, 0 26.17 M0 26.17 C1.53 9.56, 8.13 -0.01, 26.17 0 M0 26.17 C-1.62 7.09, 10.15 1.93, 26.17 0" stroke="#1e1e1e" stroke-width="1" fill="none"></path></g><g transform="translate(442.94335174560547 407) rotate(0 38.38996124267578 12.5)"><text x="38.38996124267578" y="0" font-family="Virgil, Segoe UI Emoji" font-size="20px" fill="#1e1e1e" text-anchor="middle" style="white-space: pre;" direction="ltr" dominant-baseline="text-before-edge">plugin_c</text></g><g stroke-linecap="round" transform="translate(10 342.16668701171875) rotate(0 55 25)"><path d="M3.33 2.89 C3.33 2.89, 3.33 2.89, 3.33 2.89 M3.33 2.89 C3.33 2.89, 3.33 2.89, 3.33 2.89 M1.75 10.8 C2.96 7.85, 6.81 5.18, 10.28 0.99 M1.75 10.8 C4.65 8.18, 7.07 4.77, 10.28 0.99 M1.49 17.2 C5.98 13.28, 10.36 4.09, 14.61 2.1 M1.49 17.2 C6.49 12.36, 11.57 6.55, 14.61 2.1 M1.89 22.84 C8.8 16.66, 11.49 11.09, 20.26 1.71 M1.89 22.84 C7.61 16.39, 12.79 11.64, 20.26 1.71 M1.63 29.24 C9.78 22.58, 17.89 12.67, 25.24 2.07 M1.63 29.24 C10.02 18.01, 20.29 8.5, 25.24 2.07 M1.36 35.64 C10.07 27.61, 16.23 19.72, 30.89 1.67 M1.36 35.64 C12.54 23.76, 23.63 11.32, 30.89 1.67 M1.76 41.28 C10.08 30.61, 19.77 20.7, 35.87 2.03 M1.76 41.28 C14.97 25.21, 27.79 11.37, 35.87 2.03 M2.81 46.17 C10.37 37.69, 19.17 27.43, 41.52 1.64 M2.81 46.17 C15.35 30.57, 28.08 15.56, 41.52 1.64 M5.83 48.79 C12.8 37.88, 23.97 27.97, 46.5 2 M5.83 48.79 C21.61 30.26, 37.13 12.25, 46.5 2 M10.16 49.91 C18.21 38.5, 25.68 30.14, 52.15 1.61 M10.16 49.91 C25.38 32.47, 41.36 15.14, 52.15 1.61 M13.83 51.78 C24.15 40.69, 37.86 25.83, 57.13 1.97 M13.83 51.78 C29.84 33.83, 47.31 14.29, 57.13 1.97 M19.48 51.38 C32.69 35.45, 47.75 20.33, 62.12 2.33 M19.48 51.38 C34.59 34.66, 51.57 16.96, 62.12 2.33 M24.46 51.74 C33.7 39.84, 46.13 25.71, 67.76 1.93 M24.46 51.74 C36.52 36.88, 50.2 21.3, 67.76 1.93 M30.11 51.35 C38.85 39.61, 52.02 26.37, 72.75 2.29 M30.11 51.35 C47.09 31.51, 62.15 13.13, 72.75 2.29 M35.09 51.71 C44.46 39.72, 57.42 27.11, 78.39 1.9 M35.09 51.71 C44.81 39.88, 52.67 28.89, 78.39 1.9 M40.74 51.31 C52.63 37.77, 63.34 25.46, 83.38 2.26 M40.74 51.31 C49.78 41.41, 58.06 30.74, 83.38 2.26 M45.72 51.67 C62.4 32.45, 77.59 14.14, 89.02 1.86 M45.72 51.67 C60.47 35.11, 75.42 16.48, 89.02 1.86 M51.37 51.28 C66.88 33.75, 84.97 15.99, 94.01 2.22 M51.37 51.28 C60.64 42.2, 68.25 31.99, 94.01 2.22 M56.35 51.64 C64.8 38.96, 75.87 27.76, 99.65 1.83 M56.35 51.64 C67.64 37.45, 81.12 22.79, 99.65 1.83 M62 51.24 C74.04 37.21, 89.15 18.37, 103.99 2.94 M62 51.24 C72.81 39.73, 83.24 27.61, 103.99 2.94 M66.98 51.6 C78.98 37.32, 88.43 27.07, 108.32 4.06 M66.98 51.6 C78.9 36.58, 90.48 22.93, 108.32 4.06 M72.63 51.21 C83.45 38.55, 91.87 28.64, 110.68 7.44 M72.63 51.21 C85.41 36.41, 98.69 20.95, 110.68 7.44 M77.61 51.57 C90.55 37.11, 101.01 23.71, 112.39 11.57 M77.61 51.57 C85.95 40.87, 93.84 31.19, 112.39 11.57 M83.26 51.17 C88.4 43.54, 95.45 36.11, 112.12 17.97 M83.26 51.17 C91.57 41.53, 100.69 31.28, 112.12 17.97 M88.24 51.53 C96.32 42.05, 100.18 37.6, 112.52 23.61 M88.24 51.53 C95.14 42.24, 103.7 33.82, 112.52 23.61 M93.89 51.14 C100.11 42.94, 105.83 37.71, 112.26 30.01 M93.89 51.14 C97.64 45.85, 101.68 41.63, 112.26 30.01 M98.87 51.5 C101.92 49.61, 103.46 46.32, 110.68 37.92 M98.87 51.5 C102.18 48.31, 105.99 44.71, 110.68 37.92" stroke="#ffec99" stroke-width="0.5" fill="none"></path><path d="M12.5 0 M12.5 0 C29.17 1.89, 48.43 -0.06, 97.5 0 M12.5 0 C40.44 -0.64, 68.2 -0.43, 97.5 0 M97.5 0 C104.93 0.2, 108.39 2.25, 110 12.5 M97.5 0 C104.24 2.18, 110.92 6.02, 110 12.5 M110 12.5 C110.48 20.95, 111.72 27.26, 110 37.5 M110 12.5 C109.87 20.17, 109.25 26.68, 110 37.5 M110 37.5 C108.39 44.95, 106.54 48.93, 97.5 50 M110 37.5 C109.49 46.87, 105.98 50.26, 97.5 50 M97.5 50 C69.89 51.02, 43.26 50.42, 12.5 50 M97.5 50 C80.75 48.97, 61.37 49.83, 12.5 50 M12.5 50 C2.33 51.65, -0.43 46.93, 0 37.5 M12.5 50 C5.89 51.93, 1.18 45.91, 0 37.5 M0 37.5 C-0.09 32.72, 0.74 24.14, 0 12.5 M0 37.5 C1.12 31.73, -0.43 26.27, 0 12.5 M0 12.5 C-1.04 2.85, 6.14 -0.6, 12.5 0 M0 12.5 C-1 6.14, 3.2 0.01, 12.5 0" stroke="#1e1e1e" stroke-width="1" fill="none"></path></g><g transform="translate(22.490036010742188 354.66668701171875) rotate(0 42.50996398925781 12.5)"><text x="42.50996398925781" y="0" font-family="Virgil, Segoe UI Emoji" font-size="20px" fill="#1e1e1e" text-anchor="middle" style="white-space: pre;" direction="ltr" dominant-baseline="text-before-edge">phase_3</text></g><g stroke-linecap="round" transform="translate(269.9451026467716 11.499984741210938) rotate(0 30.5 35.5)"><path d="M3.21 18.69 C3.21 18.69, 3.21 18.69, 3.21 18.69 M3.21 18.69 C3.21 18.69, 3.21 18.69, 3.21 18.69 M3.13 25.73 C6.08 23.61, 9.46 15.33, 21.06 7.17 M0.65 26.31 C8.52 19.29, 15.25 11.4, 19.12 6.62 M0.79 34.58 C4.35 28.22, 12.99 21.58, 27.11 5.15 M1.3 34.43 C7.91 24.34, 17.29 14.92, 25.81 5.81 M0.93 41.67 C10.34 28.63, 17.54 19.81, 32.68 5.76 M-0.26 41.01 C5.89 32.25, 13.14 24.67, 31.76 4.89 M3.93 43.47 C17.24 29.63, 31.46 9.92, 40.23 2.72 M2.93 45.08 C12.1 34.62, 20.87 22.8, 39.12 3.32 M4.96 48.28 C19.18 33.53, 32.27 14.52, 40.89 3.57 M4.2 47.73 C13.7 37.1, 24.3 26.89, 42.44 4.52 M6.49 50.94 C21.78 36, 34.65 17.55, 45 6.14 M4.88 51.69 C14.95 40.08, 26.53 28.03, 44.27 7.17 M7.55 55.84 C17.08 45.08, 28.41 32.53, 48.01 9.29 M6.71 57.24 C19.19 43.56, 30.26 28.52, 48.26 8.84 M10.99 61.67 C21.76 45.4, 37.26 25.4, 53.18 10.47 M8.19 59.82 C23.45 45.71, 36.27 30.83, 52.93 10.41 M12.7 63.94 C25.56 50.99, 34.34 35.56, 52.77 12.7 M12.96 63.38 C27.48 45.69, 41.76 28.33, 54.02 13.93 M14.95 66.45 C29.92 52.27, 40.96 38.26, 56.54 18.76 M16.23 64.81 C31.81 46.5, 47.08 28.26, 56.09 17.71 M18.92 68.08 C29.23 56.21, 39.3 44.12, 58.43 21.75 M18.44 67.54 C32.28 52.76, 45.57 35.75, 58.36 21.73 M24.53 70.73 C38.2 52.75, 50.41 37.61, 58.45 26.83 M22.27 68.38 C37.43 53.82, 50.94 35.99, 59.7 26.26 M25.84 72.63 C33.62 61.66, 44.6 53.9, 61.96 31.96 M27.08 71.69 C33.44 62.44, 41.75 54.77, 60.99 31.47 M30.85 71.79 C39.03 61.76, 48.64 52.62, 59.56 40.44 M31.89 69.73 C38.2 64.14, 45.75 55.47, 60.24 38.85 M38.17 70.31 C42.8 64.62, 51.02 56.46, 60.94 45.57 M37.19 69.82 C46.66 61.14, 52.87 53.79, 59.47 46.74" stroke="#ffc9c9" stroke-width="0.5" fill="none"></path><path d="M16.91 4.36 C21.84 1, 29.5 -0.54, 35.44 0.44 C41.37 1.43, 48.3 5.36, 52.5 10.28 C56.7 15.2, 59.98 22.81, 60.64 29.96 C61.3 37.11, 59.11 46.97, 56.46 53.2 C53.8 59.43, 50 64.6, 44.69 67.34 C39.38 70.09, 30.58 70.78, 24.6 69.67 C18.63 68.56, 13.01 65.68, 8.85 60.7 C4.69 55.72, 0.59 46.79, -0.35 39.78 C-1.28 32.77, 0.01 24.79, 3.24 18.65 C6.47 12.52, 16.22 5.7, 19.02 2.98 C21.82 0.25, 19.97 1.89, 20.03 2.31 M42.56 1.1 C47.88 2.92, 53.18 8.94, 56.48 15.1 C59.77 21.26, 62.68 30.89, 62.33 38.06 C61.98 45.22, 58.31 52.84, 54.39 58.09 C50.48 63.34, 44.67 67.85, 38.84 69.56 C33.02 71.26, 24.92 70.78, 19.44 68.33 C13.95 65.89, 9.01 60.87, 5.93 54.88 C2.85 48.89, 1 39.53, 0.96 32.4 C0.92 25.27, 1.89 17.1, 5.67 12.12 C9.44 7.14, 17.47 4.27, 23.61 2.53 C29.74 0.79, 39.54 1.82, 42.46 1.68 C45.39 1.53, 41.73 0.92, 41.15 1.63" stroke="#1e1e1e" stroke-width="1" fill="none"></path></g><g transform="translate(284.59761461941 27.011330372724863) rotate(0 15.780731201171875 19.886363636363637)"><text x="15.780731201171875" y="0" font-family="Virgil, Segoe UI Emoji" font-size="15.909090909090908px" fill="#1e1e1e" text-anchor="middle" style="white-space: pre;" direction="ltr" dominant-baseline="text-before-edge">goal</text><text x="15.780731201171875" y="19.886363636363637" font-family="Virgil, Segoe UI Emoji" font-size="15.909090909090908px" fill="#1e1e1e" text-anchor="middle" style="white-space: pre;" direction="ltr" dominant-baseline="text-before-edge">2</text></g><g stroke-linecap="round" transform="translate(227.833251953125 85.00003051757812) rotate(0 30.5 35.5)"><path d="M5.61 15.48 C5.61 15.48, 5.61 15.48, 5.61 15.48 M5.61 15.48 C5.61 15.48, 5.61 15.48, 5.61 15.48 M1.53 24.17 C8 21.88, 9.43 14.78, 20.76 4.15 M2.64 23.96 C9.34 18.4, 15.66 11.26, 21.57 4.31 M-1.42 33.49 C9.29 20.37, 20.59 9.49, 27.47 5.02 M0.74 34.01 C7.8 25.18, 14.64 17.64, 26.37 3.49 M1.42 38.1 C11.3 26.39, 22.5 15.71, 31.96 1.16 M2.31 38.03 C9.33 30.23, 14.56 22.13, 33.38 3.11 M3.26 43.38 C11.18 30.37, 22.72 23.23, 36.7 3.39 M3.15 43.22 C16.19 28.05, 29.54 14.14, 37.93 1.93 M5.94 47.98 C13.54 35.08, 25.59 24.9, 43.41 5.62 M3.46 48.16 C18.75 30.81, 33.6 13.54, 42.43 3.73 M4.49 51.1 C20.72 33.78, 37.64 15.76, 46.93 6.55 M5.43 50.98 C14.21 41.96, 23.62 32.47, 45.4 5.94 M4.48 56.01 C18.99 44.85, 31.67 28, 46.51 10.42 M5.76 57.7 C17.21 44.98, 26.94 33.06, 47.81 9.26 M10.46 60.26 C18.94 44.61, 33.13 32.02, 51.04 10.03 M9.2 59.36 C22.96 45.05, 35.77 28.57, 51.51 11.58 M12.73 62.72 C23.61 52.92, 30.1 41.27, 57.02 13.01 M12.47 61.97 C27.28 45.04, 41.15 28.66, 54.26 13.07 M15.81 65.83 C24.43 54.64, 32.74 43.97, 59.75 18.02 M15.83 65.51 C25.73 52.74, 35.92 42.33, 58.11 15.3 M19 67.31 C26.92 58.98, 35.88 46.58, 59.97 20.79 M18.79 68.67 C35.11 50.83, 49.3 31.3, 59.1 20.14 M19.69 68.95 C38.23 51.09, 53.66 36.6, 62.31 26.58 M20.53 70.4 C29.74 61.19, 39.11 51.14, 60.91 25.1 M24.62 73.33 C35.81 59.08, 48.31 46.31, 62.06 28.73 M24.25 73.55 C39.81 56.75, 54.29 39.99, 62.66 30.73 M32.32 72.83 C36.99 64.65, 45.59 54.07, 61.64 35.38 M30.86 72.77 C40.65 59.25, 51.18 47.87, 62.6 36.26 M37.98 70.42 C42.39 64.77, 47.99 56.66, 58.57 45.98 M36.78 72.12 C40.9 64.88, 46.66 59.22, 59.12 44.95" stroke="#ffc9c9" stroke-width="0.5" fill="none"></path><path d="M20.69 2.8 C25.88 0.2, 34.26 -0.25, 40.01 1.56 C45.76 3.36, 51.69 8.26, 55.16 13.62 C58.64 18.99, 60.91 26.66, 60.84 33.74 C60.77 40.81, 57.99 50.3, 54.75 56.09 C51.5 61.87, 46.82 66.07, 41.38 68.46 C35.94 70.84, 28.03 72.42, 22.12 70.4 C16.21 68.38, 9.7 61.95, 5.92 56.34 C2.14 50.73, -0.51 43.56, -0.55 36.74 C-0.6 29.92, 1.08 21.57, 5.66 15.42 C10.24 9.27, 22.11 2.09, 26.92 -0.17 C31.73 -2.43, 34.24 1.08, 34.53 1.87 M18.32 3.91 C23.21 0.99, 30.59 -0.47, 36.26 1.09 C41.93 2.64, 48.28 7.77, 52.33 13.23 C56.39 18.69, 59.98 27.06, 60.6 33.86 C61.21 40.65, 58.91 48.06, 56.01 53.99 C53.1 59.92, 48.77 66.74, 43.15 69.46 C37.53 72.18, 28.32 72.02, 22.29 70.32 C16.27 68.61, 10.87 64.61, 6.99 59.23 C3.11 53.86, -0.78 45.19, -1 38.06 C-1.21 30.93, 2.26 22.59, 5.68 16.47 C9.11 10.35, 17.16 3.53, 19.57 1.34 C21.98 -0.85, 20.29 2.6, 20.17 3.31" stroke="#1e1e1e" stroke-width="1" fill="none"></path></g><g transform="translate(242.48576392576342 100.51137614909204) rotate(0 15.780731201171875 19.886363636363633)"><text x="15.780731201171875" y="0" font-family="Virgil, Segoe UI Emoji" font-size="15.909090909090908px" fill="#1e1e1e" text-anchor="middle" style="white-space: pre;" direction="ltr" dominant-baseline="text-before-edge">goal</text><text x="15.780731201171875" y="19.886363636363637" font-family="Virgil, Segoe UI Emoji" font-size="15.909090909090908px" fill="#1e1e1e" text-anchor="middle" style="white-space: pre;" direction="ltr" dominant-baseline="text-before-edge">3</text></g><g stroke-linecap="round" transform="translate(284.83331298828125 161.33334350585938) rotate(0 30.5 35.5)"><path d="M14.28 5.79 C14.28 5.79, 14.28 5.79, 14.28 5.79 M14.28 5.79 C14.28 5.79, 14.28 5.79, 14.28 5.79 M5.57 23.55 C9.38 16.89, 13.41 14.87, 21.25 2.37 M5.09 22.54 C8.26 19.31, 11.9 14.07, 21.64 3.81 M4.53 31.77 C15.13 20.97, 21.65 7.05, 28.08 0.37 M3.01 29.2 C14.1 18.22, 23.62 8.89, 28.91 2.73 M1.05 37.13 C8.85 30, 17.44 21.57, 34.58 0.87 M3.05 37.23 C12.98 25.39, 23.42 14.19, 34.56 0.21 M0.9 46.1 C17.13 29.51, 31.39 12.9, 39.66 4.23 M2.18 45.46 C9.71 35.47, 19.1 24.32, 37.83 2.58 M3.87 50.2 C15.05 32.34, 27.94 18.99, 42.42 5.87 M4.55 47.83 C13.65 37.2, 23.19 25.39, 41.09 5.42 M6.14 53.84 C12.83 41.1, 22.82 31.54, 43.61 7.8 M4.65 52.38 C13.8 43.82, 24.06 33.09, 46.23 6.22 M8.09 56.18 C20.77 40.68, 34.04 25.73, 49.04 6.82 M8.05 56.24 C21.24 39.33, 35.46 24.71, 48.95 7.76 M10.54 60.26 C25.39 41.38, 41.59 23.48, 54.35 9.84 M10.46 59.87 C18.37 49.34, 29.61 37.55, 52.34 10.47 M12.08 62.89 C25.94 46.59, 43.69 25.2, 55.73 15.33 M11.98 64.08 C26.15 48.47, 40.13 32, 54.57 15.06 M13.82 65.96 C26.66 55, 34.52 39.53, 56.63 17.81 M14.71 64.48 C25.17 56.52, 32.58 45.11, 56.4 18.12 M20.27 68.71 C34.34 50.14, 48.83 35.55, 58.59 21.88 M18.51 66.83 C30.18 54.64, 41.39 42.57, 58.91 23.29 M21.94 67.67 C32.41 56.54, 43.37 42.3, 60.59 26.47 M22.46 68.2 C36.5 52.53, 50.18 38.24, 59.75 26.61 M27.47 69.21 C40.69 55.43, 51.78 41.14, 61.23 31.06 M25.89 70.5 C36.29 60.84, 42.97 51.29, 62.13 29.9 M29.07 72 C41.09 61.2, 50.95 48.53, 61.39 36.74 M30.67 72.22 C39.95 60.83, 51.5 48.61, 62.41 36.87 M38.54 70.53 C44.97 59.04, 55.95 48.88, 60.28 41.63 M38.11 70.96 C44.84 62.14, 53.03 52.87, 61.04 43.76" stroke="#ffc9c9" stroke-width="0.5" fill="none"></path><path d="M33.84 0.54 C39.38 0.69, 45.87 3.63, 50.18 8.25 C54.5 12.86, 58.23 21.29, 59.74 28.25 C61.26 35.22, 61.65 43.85, 59.28 50.04 C56.91 56.23, 50.74 61.98, 45.51 65.37 C40.29 68.75, 33.84 70.8, 27.94 70.35 C22.03 69.9, 14.75 67.21, 10.09 62.69 C5.43 58.16, 1.22 50.09, 0 43.21 C-1.22 36.33, 0.38 27.68, 2.79 21.42 C5.19 15.15, 8.39 8.84, 14.44 5.6 C20.5 2.36, 34.09 1.95, 39.12 1.98 C44.14 2, 44.49 5.18, 44.6 5.77 M34.54 -0.88 C40.28 -0.58, 45.65 3.32, 49.97 8.36 C54.29 13.4, 59.09 22.53, 60.46 29.36 C61.83 36.2, 60.76 43.06, 58.21 49.37 C55.67 55.68, 50.2 63.59, 45.19 67.23 C40.17 70.87, 34.15 72.23, 28.13 71.23 C22.1 70.23, 13.42 66.09, 9.05 61.21 C4.67 56.32, 3.18 48.72, 1.87 41.92 C0.57 35.12, -1.03 26.57, 1.21 20.43 C3.44 14.29, 9.73 8.32, 15.28 5.06 C20.83 1.8, 31.67 1.56, 34.51 0.87 C37.34 0.18, 32.28 0.49, 32.3 0.91" stroke="#1e1e1e" stroke-width="1" fill="none"></path></g><g transform="translate(299.4858249609197 176.8446891373733) rotate(0 15.780731201171875 19.88636363636364)"><text x="15.780731201171875" y="0" font-family="Virgil, Segoe UI Emoji" font-size="15.909090909090908px" fill="#1e1e1e" text-anchor="middle" style="white-space: pre;" direction="ltr" dominant-baseline="text-before-edge">goal</text><text x="15.780731201171875" y="19.886363636363637" font-family="Virgil, Segoe UI Emoji" font-size="15.909090909090908px" fill="#1e1e1e" text-anchor="middle" style="white-space: pre;" direction="ltr" dominant-baseline="text-before-edge">4</text></g><g stroke-linecap="round" transform="translate(208.5 200) rotate(0 30.5 35.5)"><path d="M5.22 15.13 C5.22 15.13, 5.22 15.13, 5.22 15.13 M5.22 15.13 C5.22 15.13, 5.22 15.13, 5.22 15.13 M2.52 24.23 C9.55 15.36, 16.75 9.31, 21.94 2.14 M4.35 23.39 C10.57 16.45, 15.57 8, 21.56 3.42 M1.4 30.82 C10.36 20.48, 20.3 9.11, 25.13 2.35 M1.49 30.46 C12.38 20.58, 21.45 8.14, 27.2 3.03 M1.07 36.57 C8.03 30.17, 15.47 19.23, 32.2 2.52 M1.91 36.63 C12.43 25.23, 23.89 10.98, 31.67 1.03 M4.85 42.55 C14.62 29.87, 23.61 17.08, 38.96 2.47 M2.7 42.33 C13.89 28.82, 25.3 17.51, 36.98 2.43 M4.62 47.65 C16.36 31.56, 31.34 17.06, 40.97 4.33 M3.39 47.67 C16.76 33.21, 27.16 19.44, 41.01 4.25 M7.25 49.55 C16.3 38.81, 30.17 25.39, 43.44 6.79 M5.65 50.27 C15.92 40.81, 25.07 28.97, 44.45 6.68 M5.99 58.03 C18.83 43.24, 30.29 29.23, 47.11 6.82 M5.68 55.42 C20.55 39.47, 33.32 23.09, 47.91 7.71 M9.6 56.85 C18.76 47.12, 28.87 35.83, 52.25 12.22 M10.57 58.93 C25.45 40.54, 40.67 22.47, 50.94 10.46 M13.04 62.38 C26.09 49.63, 35.43 33.84, 55.85 12.08 M12.04 60.53 C23.05 50.28, 33.41 38.06, 54.41 12.61 M15.35 64.78 C24 55, 35.85 44.61, 56.24 16.56 M15.46 64 C24.13 54.12, 33.09 42.4, 58.23 14.98 M16.84 67.02 C29.12 54.03, 40.51 42.42, 58.32 19.38 M18.23 67.01 C29.12 54.42, 40.2 42.07, 59.75 20.98 M22.44 69.61 C32.89 58.89, 42.69 48.79, 60.11 26.77 M22.13 68.78 C32.26 56.37, 43.95 43.59, 59.32 26.34 M26.84 69.12 C36.88 58.75, 50.33 44.22, 63.38 31.56 M27.71 69.4 C39.69 56.79, 51.43 42.39, 62.2 30.15 M32.52 68.93 C41.31 59.41, 53.55 47.77, 63.58 35.38 M33.39 69.56 C42.17 55.83, 53.85 44.28, 61.49 35.87 M36.3 68.22 C43.88 59.94, 52.7 53.95, 61.07 44.9 M37.09 70.31 C42.01 64.91, 47.3 57.31, 60.54 42.53 M41.85 69.25 C48.31 66.9, 51.7 59.31, 56.96 51.84 M41.98 71.28 C47.56 64.28, 52.44 59.47, 57.94 51.54" stroke="#ffc9c9" stroke-width="0.5" fill="none"></path><path d="M20.3 1.8 C25.38 -0.87, 33.42 -1.03, 39.19 0.93 C44.95 2.89, 51.32 8.01, 54.89 13.56 C58.47 19.12, 60.46 27.22, 60.64 34.27 C60.81 41.31, 59.32 49.96, 55.93 55.84 C52.55 61.72, 46.08 67.31, 40.35 69.52 C34.62 71.74, 27.28 71.37, 21.54 69.14 C15.81 66.91, 9.39 61.54, 5.93 56.15 C2.48 50.76, 0.97 43.59, 0.83 36.79 C0.68 29.98, 0.95 21.32, 5.04 15.33 C9.14 9.35, 21.18 3.27, 25.38 0.89 C29.58 -1.48, 30.29 0.49, 30.25 1.09 M37.41 2.68 C42.87 4.25, 49.82 8.61, 53.7 13.87 C57.57 19.12, 60.17 27.28, 60.65 34.23 C61.14 41.19, 60.05 49.75, 56.6 55.61 C53.16 61.47, 45.7 66.84, 39.96 69.39 C34.22 71.95, 27.78 73.02, 22.15 70.93 C16.52 68.83, 9.77 62.24, 6.16 56.81 C2.55 51.38, 0.43 44.97, 0.48 38.35 C0.54 31.72, 3.38 23.28, 6.49 17.06 C9.61 10.84, 13.84 3.86, 19.2 1.03 C24.56 -1.79, 35.19 -0.01, 38.65 0.11 C42.12 0.24, 40.26 1.23, 39.97 1.78" stroke="#1e1e1e" stroke-width="1" fill="none"></path></g><g transform="translate(223.15251197263842 215.51134563151393) rotate(0 15.780731201171875 19.88636363636364)"><text x="15.780731201171875" y="0" font-family="Virgil, Segoe UI Emoji" font-size="15.909090909090908px" fill="#1e1e1e" text-anchor="middle" style="white-space: pre;" direction="ltr" dominant-baseline="text-before-edge">goal</text><text x="15.780731201171875" y="19.886363636363637" font-family="Virgil, Segoe UI Emoji" font-size="15.909090909090908px" fill="#1e1e1e" text-anchor="middle" style="white-space: pre;" direction="ltr" dominant-baseline="text-before-edge">5</text></g><g stroke-linecap="round" transform="translate(285.5 267.66668701171875) rotate(0 30.5 35.5)"><path d="M6.13 11.95 C6.13 11.95, 6.13 11.95, 6.13 11.95 M6.13 11.95 C6.13 11.95, 6.13 11.95, 6.13 11.95 M3.16 19.18 C9.06 14.89, 10.63 12.02, 16.97 7.57 M3.21 19.71 C7.61 16.42, 9.42 12.89, 15.56 6.18 M1.98 30.7 C6.66 22.84, 11.14 17.33, 25.52 2.43 M1.77 29.2 C7.37 22.21, 15.19 13.8, 25.48 2.5 M3.24 33.68 C9.93 26.46, 18.27 14.67, 31.25 2.74 M3.27 34.91 C9.7 25.27, 16.82 16.87, 31.17 2.35 M2.07 38 C11.09 32.55, 17.43 21.78, 36.07 1.6 M2.78 39.63 C11.24 31.22, 17.3 22.18, 35.97 2.79 M6.7 43.94 C17.33 30.24, 28.74 17.08, 39.12 3.15 M4.1 44.12 C16.4 29.23, 28.27 15.98, 40.01 1.67 M3.95 49.08 C19.89 32.64, 34.28 15.47, 45.58 5.9 M6.03 49.13 C19.33 32.65, 32.92 17.12, 43.82 4.03 M6.59 57.09 C19.02 41.1, 28.41 28.71, 46.59 5.62 M4.75 55.35 C15.18 45.38, 23.64 33.7, 47.11 6.14 M9.39 56.66 C21.57 46.4, 33.1 30.71, 50.81 8.66 M8.61 57.44 C24.56 39.78, 38.66 23.32, 49.23 9.96 M11.37 61.38 C26.89 43.8, 43.79 23.74, 51.75 12.21 M11.36 61.03 C23.43 47.34, 35.78 33.59, 53.35 12.44 M14.36 65.09 C23.86 54.52, 34.03 42.65, 57.28 15.27 M13.52 63.23 C23.87 52.17, 33.8 39.77, 56.85 15.7 M15.86 66.25 C29.14 56, 38.28 43.6, 60.95 18.9 M16.15 68.08 C25.64 57.85, 33.26 47.77, 59.54 18.4 M19.08 69.11 C31.13 59.75, 40.92 47.41, 60.17 24.52 M19.72 68.89 C33.94 51.58, 50.34 33.87, 60.67 23.11 M23.01 69.99 C37.27 55.22, 53.92 37.54, 62.84 26.32 M25.1 69.59 C33.27 61.17, 39.09 52.92, 60.47 27.88 M27.91 72.3 C39.39 61.29, 45.64 50.26, 62.17 33.34 M29.93 70.94 C36.42 62.16, 44.89 53.83, 61.86 33.45 M32.67 72.51 C45.37 58.16, 52.44 50.13, 62.8 39.18 M32.83 71.58 C40.39 63.88, 47.88 55.04, 63.39 38.09 M40.19 70.66 C45.1 64.05, 50.39 58.9, 57.57 49.81 M39.64 71.67 C44.09 65.82, 47.59 60.86, 56.93 50.49" stroke="#ffc9c9" stroke-width="0.5" fill="none"></path><path d="M24.29 1.81 C29.59 -0.49, 36.34 -0.48, 41.7 1.91 C47.06 4.3, 53.09 10.1, 56.45 16.14 C59.81 22.17, 62.41 31.21, 61.84 38.13 C61.28 45.04, 57.21 52.23, 53.06 57.65 C48.9 63.06, 42.77 68.73, 36.92 70.6 C31.08 72.47, 23.25 71.49, 17.99 68.86 C12.72 66.22, 8.17 60.94, 5.31 54.78 C2.45 48.62, 0.65 39.08, 0.84 31.88 C1.03 24.68, 2.22 16.85, 6.45 11.58 C10.68 6.31, 22.24 2.01, 26.24 0.24 C30.25 -1.53, 30.22 0.38, 30.48 0.95 M29.76 -1.36 C35.45 -1.72, 44.21 3.08, 49.03 7.5 C53.85 11.92, 57.11 18.39, 58.68 25.15 C60.25 31.92, 60.23 41.66, 58.45 48.09 C56.67 54.52, 52.55 60.02, 48 63.74 C43.45 67.46, 37.05 70.44, 31.13 70.38 C25.21 70.32, 17.31 67.31, 12.48 63.37 C7.65 59.43, 3.82 53.16, 2.15 46.74 C0.47 40.32, 0.53 31.4, 2.44 24.85 C4.36 18.31, 8.66 11.74, 13.64 7.46 C18.62 3.17, 29.5 0.22, 32.31 -0.85 C35.12 -1.92, 30.54 0.16, 30.52 1.02" stroke="#1e1e1e" stroke-width="1" fill="none"></path></g><g transform="translate(300.1525119726384 283.1780326432327) rotate(0 15.780731201171875 19.886363636363626)"><text x="15.780731201171875" y="0" font-family="Virgil, Segoe UI Emoji" font-size="15.909090909090908px" fill="#1e1e1e" text-anchor="middle" style="white-space: pre;" direction="ltr" dominant-baseline="text-before-edge">goal</text><text x="15.780731201171875" y="19.886363636363637" font-family="Virgil, Segoe UI Emoji" font-size="15.909090909090908px" fill="#1e1e1e" text-anchor="middle" style="white-space: pre;" direction="ltr" dominant-baseline="text-before-edge">6</text></g><g stroke-linecap="round" transform="translate(196.5 301.3333435058594) rotate(0 30.5 35.5)"><path d="M8.84 10.34 C8.84 10.34, 8.84 10.34, 8.84 10.34 M8.84 10.34 C8.84 10.34, 8.84 10.34, 8.84 10.34 M1.42 24.56 C7.89 15.74, 12.65 13.75, 18.03 2.85 M2.56 23.18 C7.97 15.81, 14.37 10.37, 18.75 4.48 M0.05 32.85 C9.91 21.53, 20.51 10.23, 28.57 2 M0.66 30.55 C11.16 20.62, 21.28 8.22, 25.97 2.18 M1.98 34.55 C8.88 29.19, 20.03 18.21, 29.75 2.61 M2.77 36.82 C10.66 27.95, 17.31 19.23, 31.84 2.66 M3.06 39.69 C11.61 30.83, 21.1 21.25, 37.65 4.58 M3.79 40.71 C15.03 26.33, 28.2 12.14, 35.8 2.85 M3.03 45.88 C13.94 32.51, 25.79 18.72, 41.76 2.65 M2.86 47.28 C16.16 31.52, 30.29 14.84, 40.98 3.43 M5.04 51.03 C18 37.98, 33.01 17.76, 45.7 5.1 M3.78 51.89 C15.01 39.11, 27.42 25.27, 45.7 4.75 M8.33 56.62 C18.35 39.23, 33.28 26.39, 48.69 8.81 M6.51 56.52 C20.05 38.63, 33.75 23.24, 47.86 6.95 M8.4 60.2 C19.38 46.8, 29.1 36.43, 50.2 9.97 M10.31 59.47 C25.4 39.11, 40.57 22.63, 50.49 11.81 M13.1 62.92 C26 44.86, 38.12 29.47, 52.76 13.59 M12.57 61.93 C26.23 46.23, 39.66 30.11, 53.4 13.37 M13.91 65.71 C24.22 55.67, 34.33 42.01, 54.72 16.73 M15.12 65.36 C22.84 52.8, 32.18 42.76, 56.81 16.33 M17.52 66.59 C33.34 48.7, 49.78 31.14, 57 22.06 M16.55 67.88 C33.27 48.77, 48.16 31.48, 59.02 20.7 M21.77 67.64 C32.82 58.11, 40.01 46.48, 57.82 26.8 M23.08 68.36 C36.24 52.56, 49.55 37.82, 57.98 25.87 M25.22 71.02 C34.81 59.41, 45.27 47.98, 60.75 30.23 M27.04 69.62 C36.24 57.38, 46.43 45.27, 60.2 31.24 M30.44 70.22 C40.31 59.8, 51.3 46.55, 58.86 38.21 M30.99 70.71 C37.87 62.18, 43.6 55.71, 59.79 35.87 M36.14 70.53 C44.08 62.81, 48.97 53.89, 59.43 42.42 M34.71 70.63 C40.71 64.9, 45.92 58.65, 62.09 40.87 M37.95 72.33 C43.13 64.4, 49.97 58.3, 57.48 51.41 M38.89 72.62 C43.37 67.56, 48.16 61.3, 58.01 51.52" stroke="#ffc9c9" stroke-width="0.5" fill="none"></path><path d="M25.34 0.77 C30.75 -0.9, 37.93 -0.42, 43.31 2.79 C48.68 6, 54.83 13.87, 57.59 20.02 C60.35 26.18, 60.87 33.09, 59.88 39.73 C58.9 46.38, 55.69 54.64, 51.68 59.88 C47.67 65.12, 41.7 70.02, 35.83 71.16 C29.97 72.31, 21.83 69.84, 16.47 66.76 C11.11 63.67, 6.43 58.77, 3.66 52.66 C0.88 46.56, -1.05 37.2, -0.18 30.13 C0.7 23.06, 4.03 15.4, 8.91 10.26 C13.8 5.11, 24.89 0.97, 29.14 -0.73 C33.39 -2.44, 34.36 -0.66, 34.41 0.02 M34.12 0.61 C39.44 1.11, 46.47 4.35, 51.06 9.05 C55.65 13.75, 60.69 21.94, 61.66 28.81 C62.62 35.68, 59.96 43.89, 56.85 50.26 C53.74 56.63, 48.35 63.43, 42.99 67.04 C37.64 70.65, 30.17 72.97, 24.73 71.92 C19.29 70.88, 14.24 65.97, 10.36 60.75 C6.48 55.53, 2.56 47.73, 1.43 40.62 C0.31 33.5, 0.89 24.18, 3.61 18.07 C6.33 11.97, 12.41 6.99, 17.74 3.99 C23.08 0.99, 32.68 0.57, 35.62 0.06 C38.55 -0.45, 35.46 0.29, 35.36 0.92" stroke="#1e1e1e" stroke-width="1" fill="none"></path></g><g transform="translate(211.15251197263842 316.84468913737334) rotate(0 15.780731201171875 19.886363636363626)"><text x="15.780731201171875" y="0" font-family="Virgil, Segoe UI Emoji" font-size="15.909090909090908px" fill="#1e1e1e" text-anchor="middle" style="white-space: pre;" direction="ltr" dominant-baseline="text-before-edge">goal</text><text x="15.780731201171875" y="19.886363636363637" font-family="Virgil, Segoe UI Emoji" font-size="15.909090909090908px" fill="#1e1e1e" text-anchor="middle" style="white-space: pre;" direction="ltr" dominant-baseline="text-before-edge">7</text></g><g stroke-linecap="round" transform="translate(286.5 395.9999694824219) rotate(0 30.5 35.5)"><path d="M4.02 15.42 C4.02 15.42, 4.02 15.42, 4.02 15.42 M4.02 15.42 C4.02 15.42, 4.02 15.42, 4.02 15.42 M3.84 22.62 C5.84 18.83, 9.56 15.22, 18.96 1.53 M3.32 23.29 C7.89 16.4, 15.15 8.83, 20.61 3.06 M1.5 31.39 C7.42 23.54, 14.8 15.29, 26.42 2.43 M0.74 30.89 C11.44 19.65, 21.38 8.73, 26.55 3.38 M-0.54 36.36 C10.64 25.76, 18.16 14.53, 31.17 1.12 M0.21 37.74 C7.95 28.61, 14.99 21.02, 31.55 2.83 M1 40.02 C17.69 25.31, 30.61 11.52, 38.23 1.51 M2.55 40.18 C15.15 26.63, 27.01 13.06, 37.42 2.62 M6.19 45.02 C20.24 29.91, 29.89 12.11, 39.52 5.11 M5.65 45.61 C13.02 33.95, 22.56 23.39, 40.91 4.66 M3.89 48.51 C17.58 37.07, 29.69 22.74, 43.07 4.44 M5.27 50.08 C18.26 35.32, 31.22 22.91, 43.94 6.09 M5.15 53.26 C17.03 44.79, 26.93 31.62, 46.63 10.66 M7.31 54.4 C18.4 41.14, 29.97 29.28, 45.92 7.97 M6.66 60.3 C24.9 38.44, 41.43 20.32, 50.93 11.43 M8.23 60.02 C17.61 49.01, 27.1 36.65, 50.07 10.39 M10.79 60.52 C25.07 46.41, 40.89 27.94, 51.93 11.55 M11.86 61.68 C23.02 47.45, 36.22 33.76, 54.33 14.08 M13.83 63.64 C29.96 47.23, 40.57 32.41, 58.71 14.08 M14.55 63.55 C29.86 45.77, 45.33 28.54, 56.36 14.82 M17.2 65.42 C28.17 55.7, 38.48 43.04, 59.12 19.95 M17.28 65.53 C28.45 54.81, 38.69 42.49, 57.84 20.03 M21 67.22 C32.52 56.85, 44.13 42.8, 59.59 22.38 M22.07 67.96 C32.89 53.73, 47.29 38.8, 59.33 24.41 M26.02 69.2 C34.44 56.64, 46.4 44.83, 63.42 30.17 M24.82 69.94 C35.44 60.2, 43.06 48.64, 61.35 28.29 M31.85 68.58 C36.7 63.4, 43.8 53.76, 63.49 34.43 M30.38 70.71 C40.42 59.02, 49.8 49.07, 61.95 33.56 M34.34 70.68 C46.06 60.09, 54.99 46.55, 60.98 42.13 M36.84 69.82 C45.15 59.26, 52.74 51.13, 60.38 42.26 M44.3 69.37 C50.17 60.73, 54.49 55.84, 58.71 49.49 M43.06 68.7 C48.42 62.21, 55.96 54.04, 59.23 49.18" stroke="#ffc9c9" stroke-width="0.5" fill="none"></path><path d="M37.68 1.86 C43.21 3.18, 50.03 7.92, 54.04 13.13 C58.05 18.33, 61.2 26.16, 61.72 33.08 C62.23 40, 60.35 48.79, 57.13 54.64 C53.9 60.49, 47.95 65.71, 42.35 68.17 C36.76 70.63, 29.63 71.04, 23.57 69.4 C17.52 67.77, 9.88 63.53, 6.03 58.38 C2.18 53.22, 0.82 45.61, 0.45 38.49 C0.09 31.36, 0.65 21.69, 3.83 15.63 C7.02 9.57, 13.48 4.46, 19.57 2.12 C25.65 -0.22, 36.3 1.35, 40.37 1.6 C44.43 1.84, 44.08 2.76, 43.93 3.58 M43.29 2.68 C48.78 5.05, 54.77 10.74, 57.85 16.99 C60.92 23.24, 62.34 33, 61.74 40.2 C61.13 47.41, 58.52 54.98, 54.22 60.21 C49.93 65.44, 41.97 70.25, 35.96 71.6 C29.94 72.94, 23.55 71.42, 18.14 68.28 C12.72 65.14, 6.54 58.9, 3.46 52.76 C0.38 46.62, -0.9 38.37, -0.34 31.43 C0.23 24.5, 2.75 16.26, 6.83 11.16 C10.91 6.05, 18.07 1.98, 24.15 0.78 C30.24 -0.43, 40 3.22, 43.35 3.91 C46.7 4.59, 44.53 4.62, 44.24 4.89" stroke="#1e1e1e" stroke-width="1" fill="none"></path></g><g transform="translate(301.1525119726384 411.51131511393584) rotate(0 15.780731201171875 19.886363636363626)"><text x="15.780731201171875" y="0" font-family="Virgil, Segoe UI Emoji" font-size="15.909090909090908px" fill="#1e1e1e" text-anchor="middle" style="white-space: pre;" direction="ltr" dominant-baseline="text-before-edge">goal</text><text x="15.780731201171875" y="19.886363636363637" font-family="Virgil, Segoe UI Emoji" font-size="15.909090909090908px" fill="#1e1e1e" text-anchor="middle" style="white-space: pre;" direction="ltr" dominant-baseline="text-before-edge">8</text></g><g stroke-linecap="round" transform="translate(171.16668701171875 10) rotate(0 30.5 35.5)"><path d="M6.05 14.53 C6.05 14.53, 6.05 14.53, 6.05 14.53 M6.05 14.53 C6.05 14.53, 6.05 14.53, 6.05 14.53 M3.62 23.1 C6.26 18.33, 12.53 11.8, 23.73 3.28 M3.89 24.71 C9.01 17.92, 15.5 8.94, 22.08 1.01 M0.36 35.32 C10.61 21.48, 17.55 11.69, 26.32 3.28 M-0.54 32.45 C8.41 22.48, 18.9 11.78, 28.75 1.31 M2.49 35.82 C9.13 29.67, 14.01 23.82, 35.2 1.58 M2.89 35.93 C10.73 26.98, 20.86 17.05, 33.05 1.19 M4.92 42.7 C16.23 26.5, 29.76 11.47, 39.77 -0.12 M4.04 41.05 C10.81 33.34, 16.95 24.79, 38.28 1.86 M4.61 46.57 C18.58 31.09, 32.15 15.34, 43.02 1.93 M4.84 45.41 C14.41 33.62, 25.79 22.64, 43.23 1.97 M5.6 51.36 C14.74 40.38, 21.5 33.53, 44.37 7.05 M7.11 50.31 C20.61 34.7, 35.02 16.37, 45.79 6.15 M7.59 57.11 C14.72 45.55, 24.61 34.61, 47 6.38 M6.08 56.55 C16.97 44.39, 29.06 31.71, 49.26 8.45 M7.37 57.84 C20.53 44.95, 34.56 30.45, 51.34 9.87 M8.68 59.57 C20.73 45.24, 34.75 30.78, 52.64 10.45 M10.38 64 C19.18 50.09, 28.26 43.15, 53.12 12.06 M11.97 62.87 C24.76 45.51, 38.66 30.15, 55.6 14.14 M15.33 64.03 C30.99 47.72, 48.84 25.73, 56.12 15.31 M16.62 64.83 C27.52 49.87, 41.34 35.86, 58.1 16.27 M17.01 66.49 C34.13 51.13, 45.94 34.74, 58.95 19.29 M18.62 65.88 C31.99 52.22, 45.12 36.96, 58.03 21.02 M22.96 70.74 C33.37 57.03, 43.75 41.74, 61.74 25.5 M22.83 70.33 C34.51 55.88, 46.43 40.44, 60.76 25.56 M26.27 70.19 C36.61 57.26, 47.57 48.68, 60.93 31.23 M26.61 68.76 C34.84 60.06, 42.72 51.45, 60.84 31.24 M34.43 68.61 C41.76 59.8, 52.08 50.14, 63.36 35.39 M31.6 69.44 C39.09 61.79, 45.49 53.6, 60.98 36.42 M35.89 68.07 C40.6 63.34, 47.96 58.47, 57.72 47.2 M37.13 69.39 C42.08 63.87, 45.5 59.61, 58.28 46.4 M43.63 70.21 C47.54 66.63, 49.63 58.71, 55.16 56.4 M42.65 70.79 C45.45 67.7, 47.24 63, 55.84 54.71" stroke="#ffc9c9" stroke-width="0.5" fill="none"></path><path d="M22.39 0.82 C27.66 -1.82, 35.21 -1.22, 40.84 1.11 C46.47 3.43, 52.86 8.94, 56.17 14.77 C59.49 20.6, 61.02 28.99, 60.73 36.09 C60.45 43.18, 58.11 51.89, 54.46 57.34 C50.81 62.78, 44.39 66.9, 38.83 68.74 C33.27 70.57, 26.72 70.34, 21.11 68.34 C15.5 66.34, 8.7 62.48, 5.18 56.75 C1.66 51.02, -0.22 41.04, -0.03 33.95 C0.16 26.86, 2.01 19.74, 6.32 14.22 C10.63 8.7, 21.76 3.13, 25.81 0.84 C29.87 -1.45, 30.65 0.04, 30.66 0.49 M30.83 -0.3 C36.42 -0.62, 43.68 2.75, 48.43 7.09 C53.18 11.43, 57.39 19.36, 59.34 25.75 C61.29 32.15, 62.12 38.99, 60.13 45.48 C58.15 51.97, 52.24 60.38, 47.43 64.68 C42.61 68.97, 36.86 71.21, 31.24 71.26 C25.62 71.3, 18.44 68.83, 13.68 64.95 C8.93 61.06, 4.69 54.49, 2.68 47.96 C0.68 41.43, 0.07 32.72, 1.65 25.74 C3.23 18.76, 7.56 10.27, 12.18 6.08 C16.79 1.88, 26.42 1.61, 29.32 0.56 C32.21 -0.49, 29.54 -0.77, 29.54 -0.22" stroke="#1e1e1e" stroke-width="1" fill="none"></path></g><g transform="translate(185.81919898435717 25.511345631513933) rotate(0 15.780731201171875 19.886363636363637)"><text x="15.780731201171875" y="0" font-family="Virgil, Segoe UI Emoji" font-size="15.909090909090908px" fill="#1e1e1e" text-anchor="middle" style="white-space: pre;" direction="ltr" dominant-baseline="text-before-edge">goal</text><text x="15.780731201171875" y="19.886363636363637" font-family="Virgil, Segoe UI Emoji" font-size="15.909090909090908px" fill="#1e1e1e" text-anchor="middle" style="white-space: pre;" direction="ltr" dominant-baseline="text-before-edge">1</text></g><g stroke-linecap="round"><g transform="translate(411.66668701171875 62.16668701171875) rotate(0 -40.38153729903513 -0.7423761528451003)"><path d="M-1.05 -0.71 C-14.33 -1, -67.43 -0.89, -80.5 -1.04 M0.6 1.53 C-12.75 0.79, -67.99 -2.68, -81.36 -3.01" stroke="#1e1e1e" stroke-width="1" fill="none"></path></g><g transform="translate(411.66668701171875 62.16668701171875) rotate(0 -40.38153729903513 -0.7423761528451003)"><path d="M-53.91 -11.66 C-58.82 -8.13, -66.46 -6.93, -82.83 -4.96 M-51.83 -11.06 C-61.27 -10, -69.05 -6.83, -82.09 -2.02" stroke="#1e1e1e" stroke-width="1" fill="none"></path></g><g transform="translate(411.66668701171875 62.16668701171875) rotate(0 -40.38153729903513 -0.7423761528451003)"><path d="M-54.87 8.83 C-59.69 7.63, -67.1 4.08, -82.83 -4.96 M-52.79 9.44 C-61.78 4.78, -69.28 2.24, -82.09 -2.02" stroke="#1e1e1e" stroke-width="1" fill="none"></path></g></g><mask></mask><g stroke-linecap="round"><g transform="translate(413.00006103515625 108.83334350585938) rotate(0 -61.830818902268106 3.4395112935593346)"><path d="M-0.93 -0.36 C-21.73 0.88, -104.07 6.99, -124.44 8.48 M0.78 -1.6 C-19.69 -0.21, -101.54 5.26, -122.3 6.61" stroke="#1e1e1e" stroke-width="1" fill="none"></path></g><g transform="translate(413.00006103515625 108.83334350585938) rotate(0 -61.830818902268106 3.4395112935593346)"><path d="M-95.46 -7.33 C-102.91 -1.47, -111.75 2.04, -124.12 7.13 M-94.34 -4.83 C-103.32 -0.84, -112.49 2.01, -121.43 6.53" stroke="#1e1e1e" stroke-width="1" fill="none"></path></g><g transform="translate(413.00006103515625 108.83334350585938) rotate(0 -61.830818902268106 3.4395112935593346)"><path d="M-94.11 13.15 C-102.18 12.31, -111.46 9.13, -124.12 7.13 M-92.99 15.65 C-102.49 13.32, -112.07 9.85, -121.43 6.53" stroke="#1e1e1e" stroke-width="1" fill="none"></path></g></g><mask></mask><g stroke-linecap="round"><g transform="translate(407.00006103515625 90.16668701171875) rotate(0 -87.47294336514085 -14.55807663378306)"><path d="M-0.03 -0.55 C-28.97 -5.53, -145.21 -24.35, -174.44 -29.19 M-1.5 1.77 C-30.46 -3.6, -145.8 -25.31, -174.92 -30.89" stroke="#1e1e1e" stroke-width="1" fill="none"></path></g><g transform="translate(407.00006103515625 90.16668701171875) rotate(0 -87.47294336514085 -14.55807663378306)"><path d="M-146.23 -34.23 C-150.88 -34.71, -158.48 -34.81, -174.11 -32.42 M-145.59 -35.98 C-151.28 -35.04, -156.65 -33.69, -175.09 -31" stroke="#1e1e1e" stroke-width="1" fill="none"></path></g><g transform="translate(407.00006103515625 90.16668701171875) rotate(0 -87.47294336514085 -14.55807663378306)"><path d="M-150.05 -14.07 C-153.92 -19.27, -160.62 -24.11, -174.11 -32.42 M-149.41 -15.82 C-154.27 -18.96, -158.86 -21.71, -175.09 -31" stroke="#1e1e1e" stroke-width="1" fill="none"></path></g></g><mask></mask><g stroke-linecap="round"><g transform="translate(420.3333740234375 220.16668701171875) rotate(0 -36.62603965337388 -9.145166559391654)"><path d="M-0.93 -0.81 C-13 -4.14, -60.82 -16.51, -72.94 -19.67 M0.78 1.38 C-11.42 -1.86, -62.02 -15.26, -74.03 -18.65" stroke="#1e1e1e" stroke-width="1" fill="none"></path></g><g transform="translate(420.3333740234375 220.16668701171875) rotate(0 -36.62603965337388 -9.145166559391654)"><path d="M-45.49 -21.61 C-53.39 -22.43, -61.1 -21.21, -73.13 -19.24 M-43.78 -22.15 C-52.27 -21.13, -59.43 -21.09, -74.91 -18.75" stroke="#1e1e1e" stroke-width="1" fill="none"></path></g><g transform="translate(420.3333740234375 220.16668701171875) rotate(0 -36.62603965337388 -9.145166559391654)"><path d="M-50.88 -1.81 C-57.46 -7.62, -63.8 -11.42, -73.13 -19.24 M-49.17 -2.35 C-56.42 -6.4, -62.18 -11.48, -74.91 -18.75" stroke="#1e1e1e" stroke-width="1" fill="none"></path></g></g><mask></mask><g stroke-linecap="round"><g transform="translate(415.66668701171875 256.16668701171875) rotate(0 -78.52329489439728 -5.216590125858787)"><path d="M0.56 0.57 C-25.88 -1.2, -131.35 -9.38, -157.61 -11.01 M-0.6 -0.17 C-26.77 -1.79, -129.17 -8.18, -155.39 -10" stroke="#1e1e1e" stroke-width="1" fill="none"></path></g><g transform="translate(415.66668701171875 256.16668701171875) rotate(0 -78.52329489439728 -5.216590125858787)"><path d="M-125.63 -19.96 C-139.44 -15.52, -147.52 -13.2, -154.63 -8.5 M-126.03 -19.26 C-137.98 -14.92, -148.6 -12.15, -155.76 -10.27" stroke="#1e1e1e" stroke-width="1" fill="none"></path></g><g transform="translate(415.66668701171875 256.16668701171875) rotate(0 -78.52329489439728 -5.216590125858787)"><path d="M-126.97 0.51 C-140.19 -2.97, -147.76 -8.58, -154.63 -8.5 M-127.37 1.21 C-138.8 -2.16, -148.91 -7.11, -155.76 -10.27" stroke="#1e1e1e" stroke-width="1" fill="none"></path></g></g><mask></mask><g stroke-linecap="round"><g transform="translate(419.66668701171875 308.16668701171875) rotate(0 -35.41983614524361 1.8713706899713998)"><path d="M0.32 -0.46 C-11.43 0.25, -58.71 3.46, -70.82 4.43 M-0.98 -1.75 C-12.75 -0.93, -59.1 4.09, -71.15 5.5" stroke="#1e1e1e" stroke-width="1" fill="none"></path></g><g transform="translate(419.66668701171875 308.16668701171875) rotate(0 -35.41983614524361 1.8713706899713998)"><path d="M-45.05 -5.86 C-53.09 -4.72, -58.87 -1.83, -71.35 7.02 M-44.57 -8.01 C-54.15 -2.16, -65.12 2.34, -70.8 6.47" stroke="#1e1e1e" stroke-width="1" fill="none"></path></g><g transform="translate(419.66668701171875 308.16668701171875) rotate(0 -35.41983614524361 1.8713706899713998)"><path d="M-42.78 14.54 C-51.46 10.12, -57.86 7.45, -71.35 7.02 M-42.3 12.38 C-52.72 10.24, -64.57 6.72, -70.8 6.47" stroke="#1e1e1e" stroke-width="1" fill="none"></path></g></g><mask></mask><g stroke-linecap="round"><g transform="translate(419.66668701171875 398.1667175292969) rotate(0 -84.20370266850108 -21.724271075427538)"><path d="M-0.25 0.04 C-28.35 -7.37, -140.91 -36.36, -169.07 -43.49 M1.81 -0.98 C-26.43 -8.35, -141.55 -35.64, -170.22 -42.39" stroke="#1e1e1e" stroke-width="1" fill="none"></path></g><g transform="translate(419.66668701171875 398.1667175292969) rotate(0 -84.20370266850108 -21.724271075427538)"><path d="M-140.35 -46.54 C-149.47 -45.92, -155.91 -43.6, -168.61 -42.48 M-139.55 -46.87 C-148.77 -44.45, -155.44 -44.03, -171.09 -42.68" stroke="#1e1e1e" stroke-width="1" fill="none"></path></g><g transform="translate(419.66668701171875 398.1667175292969) rotate(0 -84.20370266850108 -21.724271075427538)"><path d="M-145.08 -26.57 C-153.14 -31.11, -158.36 -33.94, -168.61 -42.48 M-144.28 -26.9 C-152.52 -29.43, -158.01 -33.98, -171.09 -42.68" stroke="#1e1e1e" stroke-width="1" fill="none"></path></g></g><mask></mask><g stroke-linecap="round"><g transform="translate(427.00006103515625 442.8333435058594) rotate(0 -38.24908159216403 -0.3279307997029548)"><path d="M0.29 -0.18 C-12.24 -0.39, -63.41 -0.75, -76.13 -0.8 M-1.01 -1.33 C-13.57 -1.37, -64.22 0.28, -76.79 0.67" stroke="#1e1e1e" stroke-width="1" fill="none"></path></g><g transform="translate(427.00006103515625 442.8333435058594) rotate(0 -38.24908159216403 -0.3279307997029548)"><path d="M-49.24 -9.56 C-55.25 -6.82, -60.8 -7.19, -75.49 -0.29 M-49.26 -11.35 C-59.21 -7.5, -69.5 -3.17, -76.31 -0.25" stroke="#1e1e1e" stroke-width="1" fill="none"></path></g><g transform="translate(427.00006103515625 442.8333435058594) rotate(0 -38.24908159216403 -0.3279307997029548)"><path d="M-48.6 10.95 C-54.82 9.17, -60.51 4.28, -75.49 -0.29 M-48.62 9.16 C-58.91 5.73, -69.43 2.78, -76.31 -0.25" stroke="#1e1e1e" stroke-width="1" fill="none"></path></g></g><mask></mask><g stroke-linecap="round"><g transform="translate(180.3333740234375 79.50001525878906) rotate(0 -59.64017044752836 12.090034572780134)"><path d="M0.49 0.81 C-19.41 4.68, -100.03 19.74, -119.77 23.37" stroke="#f08c00" stroke-width="1.5" fill="none" stroke-dasharray="8 9"></path></g><g transform="translate(180.3333740234375 79.50001525878906) rotate(0 -59.64017044752836 12.090034572780134)"><path d="M-92.57 6.29 C-99.66 13.51, -107.92 15.79, -120.07 23.54" stroke="#f08c00" stroke-width="1.5" fill="none"></path></g><g transform="translate(180.3333740234375 79.50001525878906) rotate(0 -59.64017044752836 12.090034572780134)"><path d="M-88.83 26.47 C-96.95 28.29, -106.2 25.17, -120.07 23.54" stroke="#f08c00" stroke-width="1.5" fill="none"></path></g></g><mask></mask><g stroke-linecap="round"><g transform="translate(278.3333740234375 72.83334350585938) rotate(0 -81.1865286514163 68.69983882158995)"><path d="M-0.42 0.06 C-27.32 22.93, -135.1 114.24, -161.95 137.34" stroke="#f08c00" stroke-width="1.5" fill="none" stroke-dasharray="8 9"></path></g><g transform="translate(278.3333740234375 72.83334350585938) rotate(0 -81.1865286514163 68.69983882158995)"><path d="M-147.05 112.43 C-151.95 119.61, -153.49 122.97, -161.09 136.74" stroke="#f08c00" stroke-width="1.5" fill="none"></path></g><g transform="translate(278.3333740234375 72.83334350585938) rotate(0 -81.1865286514163 68.69983882158995)"><path d="M-133.74 128.04 C-141.99 131.26, -146.87 130.7, -161.09 136.74" stroke="#f08c00" stroke-width="1.5" fill="none"></path></g></g><mask></mask><g stroke-linecap="round"><g transform="translate(237.66668701171875 148.16668701171875) rotate(0 -68.19279742985961 98.31756366044283)"><path d="M-0.37 1.13 C-23.19 33.73, -113.51 163.13, -136.02 195.51" stroke="#f08c00" stroke-width="1.5" fill="none" stroke-dasharray="8 9"></path></g><g transform="translate(237.66668701171875 148.16668701171875) rotate(0 -68.19279742985961 98.31756366044283)"><path d="M-126.44 165.37 C-130.95 177.2, -134 187.91, -134.84 194.36" stroke="#f08c00" stroke-width="1.5" fill="none"></path></g><g transform="translate(237.66668701171875 148.16668701171875) rotate(0 -68.19279742985961 98.31756366044283)"><path d="M-109.61 177.1 C-120.43 184.48, -129.8 190.78, -134.84 194.36" stroke="#f08c00" stroke-width="1.5" fill="none"></path></g></g><mask></mask><g stroke-linecap="round"><g transform="translate(283.00006103515625 182.16668701171875) rotate(0 -78.27058220654726 -19.24932090491056)"><path d="M-0.72 0.84 C-26.58 -5.84, -129.97 -32.64, -155.82 -39.34" stroke="#f08c00" stroke-width="1.5" fill="none" stroke-dasharray="8 9"></path></g><g transform="translate(283.00006103515625 182.16668701171875) rotate(0 -78.27058220654726 -19.24932090491056)"><path d="M-124.56 -40.79 C-132.22 -40.3, -139.65 -40.97, -156.4 -40.28" stroke="#f08c00" stroke-width="1.5" fill="none"></path></g><g transform="translate(283.00006103515625 182.16668701171875) rotate(0 -78.27058220654726 -19.24932090491056)"><path d="M-129.71 -20.93 C-136.21 -25.32, -142.38 -30.89, -156.4 -40.28" stroke="#f08c00" stroke-width="1.5" fill="none"></path></g></g><mask></mask><g stroke-linecap="round"><g transform="translate(200.3333740234375 247.50003051757812) rotate(0 -39.01821200102569 -2.8659875944256754)"><path d="M0.64 0.44 C-12.43 -0.7, -65.38 -5.18, -78.67 -6.17" stroke="#f08c00" stroke-width="1.5" fill="none" stroke-dasharray="8 9"></path></g><g transform="translate(200.3333740234375 247.50003051757812) rotate(0 -39.01821200102569 -2.8659875944256754)"><path d="M-49.03 -13.04 C-59.1 -11.47, -65.96 -10.03, -79.82 -8.08" stroke="#f08c00" stroke-width="1.5" fill="none"></path></g><g transform="translate(200.3333740234375 247.50003051757812) rotate(0 -39.01821200102569 -2.8659875944256754)"><path d="M-50.67 7.42 C-60.39 3.32, -66.8 -0.89, -79.82 -8.08" stroke="#f08c00" stroke-width="1.5" fill="none"></path></g></g><mask></mask><g stroke-linecap="round"><g transform="translate(288.3333740234375 297.5000305175781) rotate(0 -82.80989581793548 33.164486353099335)"><path d="M0.26 1.13 C-27.56 12.16, -138.38 54.74, -165.88 65.2" stroke="#f08c00" stroke-width="1.5" fill="none" stroke-dasharray="8 9"></path></g><g transform="translate(288.3333740234375 297.5000305175781) rotate(0 -82.80989581793548 33.164486353099335)"><path d="M-141.33 44.63 C-151.26 54.21, -162.26 62.71, -165.97 65.36" stroke="#f08c00" stroke-width="1.5" fill="none"></path></g><g transform="translate(288.3333740234375 297.5000305175781) rotate(0 -82.80989581793548 33.164486353099335)"><path d="M-133.99 63.8 C-146.61 65.97, -160.45 67.06, -165.97 65.36" stroke="#f08c00" stroke-width="1.5" fill="none"></path></g></g><mask></mask><g stroke-linecap="round"><g transform="translate(203.00006103515625 305.5000305175781) rotate(0 -60.113316638767714 -70.61644212454557)"><path d="M1.15 0.37 C-19.12 -23.11, -101.24 -117.93, -121.38 -141.6" stroke="#f08c00" stroke-width="1.5" fill="none" stroke-dasharray="8 9"></path></g><g transform="translate(203.00006103515625 305.5000305175781) rotate(0 -60.113316638767714 -70.61644212454557)"><path d="M-94.6 -128.1 C-105.1 -129.71, -113.59 -134.83, -123.04 -143.28" stroke="#f08c00" stroke-width="1.5" fill="none"></path></g><g transform="translate(203.00006103515625 305.5000305175781) rotate(0 -60.113316638767714 -70.61644212454557)"><path d="M-110.17 -114.72 C-115.59 -120.78, -119.08 -130.19, -123.04 -143.28" stroke="#f08c00" stroke-width="1.5" fill="none"></path></g></g><mask></mask><g stroke-linecap="round"><g transform="translate(275.66668701171875 411.5000305175781) rotate(0 -104.30706973820924 -72.54219052046537)"><path d="M-1.04 -1.2 C-35.65 -25.19, -173 -120.28, -207.58 -143.89" stroke="#f08c00" stroke-width="1.5" fill="none" stroke-dasharray="8 9"></path></g><g transform="translate(275.66668701171875 411.5000305175781) rotate(0 -104.30706973820924 -72.54219052046537)"><path d="M-180.53 -134.54 C-188.4 -138.62, -195.59 -140.53, -208.22 -142.67" stroke="#f08c00" stroke-width="1.5" fill="none"></path></g><g transform="translate(275.66668701171875 411.5000305175781) rotate(0 -104.30706973820924 -72.54219052046537)"><path d="M-192.17 -117.64 C-196.47 -126.82, -200.08 -133.92, -208.22 -142.67" stroke="#f08c00" stroke-width="1.5" fill="none"></path></g></g><mask></mask></svg>